<?xml version="1.0" standalone="no"?>
<!DOCTYPE svg PUBLIC "-//W3C//DTD SVG 1.1//EN" "http://www.w3.org/Graphics/SVG/1.1/DTD/svg11.dtd" >
<svg xmlns="http://www.w3.org/2000/svg">
<metadata>
This is a custom SVG webfont generated by Font Squirrel.
Copyright   : Copyright 19902003 Bitstream Inc All rights reserved
</metadata>
<defs>
<font id="GeoSlb712MdBTBold" horiz-adv-x="1067" >
<font-face units-per-em="2048" ascent="1556" descent="-492" />
<missing-glyph horiz-adv-x="532" />
<glyph unicode=" "  horiz-adv-x="532" />
<glyph unicode="&#x09;" horiz-adv-x="532" />
<glyph unicode="&#xa0;" horiz-adv-x="532" />
<glyph unicode="!" horiz-adv-x="588" d="M137 0v332h314v-332h-314zM141 1012v409h305v-409l-77 -516h-152z" />
<glyph unicode="&#x22;" horiz-adv-x="678" d="M80 879v559h192v-559h-192zM406 879v559h192v-559h-192z" />
<glyph unicode="#" horiz-adv-x="1575" d="M45 406l76 200h282l86 242h-299l74 201h297l148 415h221l-146 -415h242l148 415h221l-148 -415h283l-74 -201h-280l-84 -242h290l-71 -200h-291l-148 -416h-221l148 416h-244l-149 -416h-220l146 416h-287zM621 604h251l86 244h-249z" />
<glyph unicode="$" d="M68 1053q0 165 97 261.5t271 102.5v162h133v-164q36 -12 70.5 -32t71.5 -52v90h217v-444h-217v98q-17 48 -52.5 79t-95.5 48v-334l125 -71q164 -94 237.5 -196t73.5 -234q0 -182 -108.5 -277.5t-315.5 -95.5h-6v-207h-133v223q-42 14 -77 34t-62 46v-90h-219v487h219 v-116q12 -47 48.5 -84t100.5 -68v399l-129 72q-130 74 -189.5 161t-59.5 202zM324 1081q0 -49 28.5 -86.5t98.5 -76.5v298q-59 -4 -93 -40t-34 -95zM561 205q82 7 125 47.5t43 109.5q0 63 -39.5 109.5t-128.5 89.5v-356z" />
<glyph unicode="%" horiz-adv-x="1630" d="M35 1036q0 187 90 298.5t240 111.5t238.5 -110.5t88.5 -299.5q0 -188 -88.5 -297.5t-238.5 -109.5q-151 0 -240.5 110t-89.5 297zM250 1036q0 -99 31 -158t81 -59q54 0 85.5 58.5t31.5 158.5t-31.5 158.5t-85.5 58.5q-50 0 -81 -59t-31 -158zM291 -29l868 1475h178 l-868 -1475h-178zM936 379q0 188 89 298.5t239 110.5t239.5 -110.5t89.5 -298.5t-89 -298t-240 -110q-150 0 -239 110.5t-89 297.5zM1149 379q0 -98 32 -157.5t83 -59.5q52 0 83 58t31 159q0 100 -31 158.5t-83 58.5q-51 0 -83 -59.5t-32 -157.5z" />
<glyph unicode="&#x26;" horiz-adv-x="1522" d="M49 436q0 141 87.5 249t273.5 196q-49 70 -74 133t-25 116q0 141 100 228.5t261 87.5q164 0 263 -81t99 -214q0 -90 -53.5 -162t-177.5 -145l205 -260q56 79 95 151.5t60 138.5h307v-225h-155q-39 -82 -78.5 -145t-83.5 -113l125 -164h192v-227h-389l-123 164 q-92 -97 -197 -145t-224 -48q-100 0 -185.5 32t-152.5 95q-74 68 -112 153.5t-38 184.5zM356 479q0 -90 71.5 -158.5t166.5 -68.5q54 0 109 25.5t114 78.5l-276 351q-88 -37 -136.5 -97t-48.5 -131zM584 1176q0 -33 20 -73.5t62 -90.5q62 41 91 80.5t29 81.5q0 38 -30 67 t-72 29q-47 0 -73.5 -25.5t-26.5 -68.5z" />
<glyph unicode="'" horiz-adv-x="352" d="M80 879v559h192v-559h-192z" />
<glyph unicode="(" horiz-adv-x="872" d="M219 563q0 342 143 572t404 311v-199q-124 -81 -184 -248.5t-60 -433.5q0 -268 60 -437t184 -249v-201q-262 83 -404.5 313t-142.5 572z" />
<glyph unicode=")" horiz-adv-x="872" d="M106 -123q124 81 183 248t59 434q0 270 -59.5 438.5t-182.5 247.5v201q262 -82 404.5 -312t142.5 -573q0 -341 -142.5 -571.5t-404.5 -311.5v199z" />
<glyph unicode="*" horiz-adv-x="967" d="M141 1137l54 159l211 -77l-9 227h170l-8 -227l215 77l51 -161l-219 -62l142 -180l-138 -98l-127 188l-125 -188l-137 100l139 178z" />
<glyph unicode="+" horiz-adv-x="1706" d="M254 512v199h498v510h202v-510h498v-199h-498v-512h-202v512h-498z" />
<glyph unicode="," horiz-adv-x="532" d="M96 -186q79 12 114.5 50.5t35.5 110.5v25h-140v332h314v-297q0 -191 -77 -280t-247 -95v154z" />
<glyph unicode="-" horiz-adv-x="682" d="M76 383v264h530v-264h-530z" />
<glyph unicode="." horiz-adv-x="532" d="M111 0v332h311v-332h-311z" />
<glyph unicode="/" horiz-adv-x="653" d="M-63 -190l559 1636h170l-562 -1636h-167z" />
<glyph unicode="0" d="M59 709q0 349 125 543t348 194q228 0 352 -196.5t124 -559.5q0 -335 -127.5 -527t-348.5 -192q-223 0 -348 194t-125 544zM373 713q0 -244 42.5 -381t116.5 -137q75 0 118.5 137.5t43.5 380.5q0 245 -43 381.5t-119 136.5q-75 0 -117 -136t-42 -382z" />
<glyph unicode="1" d="M193 0v223h192v987h-192v211h499v-1198h176v-223h-675z" />
<glyph unicode="2" d="M63 61q0 148 44.5 266t140.5 228q54 63 176.5 178t167.5 180q26 39 40.5 84.5t14.5 89.5q0 71 -34 108.5t-99 37.5q-77 0 -116.5 -67.5t-39.5 -200.5v-31h-263q-2 12 -2.5 25.5t-0.5 39.5q0 209 120.5 328t332.5 119q190 0 301.5 -99.5t111.5 -267.5q0 -120 -54.5 -212 t-237.5 -236q-189 -149 -247.5 -231t-68.5 -177h387v205h221v-428h-892q-2 11 -2.5 23.5t-0.5 37.5z" />
<glyph unicode="3" d="M68 440v39h253q6 -139 49.5 -203.5t131.5 -64.5q81 0 127.5 58t46.5 161q0 114 -61.5 168.5t-188.5 54.5v221h6q112 0 168.5 50t56.5 147q0 79 -34.5 120.5t-100.5 41.5q-67 0 -106.5 -51.5t-49.5 -151.5h-239q0 194 111 305t305 111q182 0 292.5 -103t110.5 -272 q0 -117 -60 -195t-179 -118q140 -36 210 -124.5t70 -230.5q0 -192 -128.5 -312t-334.5 -120q-220 0 -338 121.5t-118 347.5z" />
<glyph unicode="4" d="M2 549l616 897h240v-864h158v-203h-158v-156h146v-223h-570v223h148v156h-524q-8 43 -21.5 85t-34.5 85zM233 571h355l8 531z" />
<glyph unicode="5" d="M45 387l266 31q10 -107 56 -163t125 -56q90 0 142 70t52 194q0 113 -48.5 180.5t-129.5 67.5q-52 0 -94 -29.5t-82 -93.5l-230 108l54 725h780v-348h-209l-16 127h-351l-24 -348q66 42 130 62t130 20q180 0 294 -128t114 -333q0 -233 -130.5 -367.5t-355.5 -134.5 q-207 0 -331.5 109.5t-141.5 306.5z" />
<glyph unicode="6" d="M74 709q0 356 131 546.5t375 190.5q174 0 278.5 -95.5t124.5 -273.5l-240 -37q-19 103 -57 150t-102 47q-94 0 -146.5 -100t-52.5 -283v-37q67 49 129.5 72.5t126.5 23.5q165 0 267 -122.5t102 -325.5q0 -220 -125 -357t-324 -137q-228 0 -357.5 195.5t-129.5 542.5z M391 631v-21q0 -186 48.5 -292.5t131.5 -106.5q72 0 113 61.5t41 171.5q0 117 -47 181.5t-131 64.5q-38 0 -76.5 -14.5t-79.5 -44.5z" />
<glyph unicode="7" d="M82 991v430h917v-190q-167 -255 -252 -502.5t-93 -505.5h177v-223h-669v223h180v13q0 192 93.5 425t293.5 537h-428v-207h-219z" />
<glyph unicode="8" d="M47 381q0 136 71 231t206 140q-118 38 -180 121t-62 202q0 164 124.5 267.5t325.5 103.5q202 0 327.5 -103.5t125.5 -267.5q0 -119 -62 -202t-180 -121q134 -45 204.5 -140t70.5 -231q0 -180 -134.5 -295t-348.5 -115q-217 0 -352.5 114.5t-135.5 295.5zM344 412 q0 -94 54.5 -156.5t133.5 -62.5q80 0 135.5 63t55.5 156t-54.5 155t-136.5 62q-79 0 -133.5 -62.5t-54.5 -154.5zM369 1040q0 -85 47 -141.5t116 -56.5q70 0 118 57t48 141q0 85 -47.5 141t-118.5 56t-117 -55.5t-46 -141.5z" />
<glyph unicode="9" d="M55 952q0 221 124 357.5t323 136.5q228 0 358.5 -195.5t130.5 -541.5q0 -355 -131.5 -546.5t-376.5 -191.5q-173 0 -277 95.5t-124 273.5l240 37q19 -103 57 -150t102 -47q94 0 145.5 99.5t51.5 281.5v39q-67 -49 -129.5 -72.5t-126.5 -23.5q-165 0 -266 122.5 t-101 325.5zM338 973q0 -117 47 -181.5t131 -64.5q38 0 76.5 15t79.5 44v21q0 187 -48 293t-130 106q-73 0 -114.5 -62t-41.5 -171z" />
<glyph unicode=":" horiz-adv-x="582" d="M133 0v332h313v-332h-313zM133 680v332h313v-332h-313z" />
<glyph unicode=";" horiz-adv-x="582" d="M129 -186q78 12 112.5 50t34.5 111v25h-137v332h312v-297q0 -192 -76.5 -280.5t-245.5 -94.5v154zM133 680v332h313v-332h-313z" />
<glyph unicode="&#x3c;" horiz-adv-x="1706" d="M264 512v199l1178 483v-219l-893 -365l893 -364v-219z" />
<glyph unicode="=" horiz-adv-x="1706" d="M254 297v199h1198v-199h-1198zM254 727v199h1198v-199h-1198z" />
<glyph unicode="&#x3e;" horiz-adv-x="1706" d="M264 27v219l895 364l-895 365v219l1178 -483v-199z" />
<glyph unicode="?" horiz-adv-x="1063" d="M43 999v23q0 190 134.5 307t352.5 117q215 0 346.5 -119t131.5 -311q0 -168 -105.5 -267.5t-286.5 -99.5h-28l-33 -164h-147l-21 385q30 -7 55 -10.5t47 -3.5q98 0 150.5 47t52.5 135t-51 140.5t-137 52.5q-82 0 -130 -54.5t-48 -146.5q0 -5 1 -15t1 -16h-285zM324 0v332 h313v-332h-313z" />
<glyph unicode="@" horiz-adv-x="2048" d="M90 520q0 167 52.5 318.5t154.5 275.5q148 181 356 274t463 93q169 0 317.5 -45.5t258.5 -128.5q135 -105 201.5 -239.5t66.5 -303.5q0 -165 -65.5 -304.5t-188.5 -238.5q-70 -56 -152.5 -85.5t-171.5 -29.5q-106 0 -159.5 42t-55.5 124q-55 -84 -127 -123.5t-170 -39.5 q-158 0 -240.5 86t-82.5 254q0 239 139.5 401t343.5 162q80 0 139 -33t97 -98l53 98h178l-147 -598q-3 -11 -5 -22.5t-2 -18.5q0 -35 24 -52.5t71 -17.5q39 0 81.5 20t79.5 56q86 80 130.5 187t44.5 235q0 240 -185.5 394.5t-478.5 154.5q-141 0 -262.5 -34t-220.5 -101 q-170 -114 -261.5 -285t-91.5 -375q0 -307 207 -490.5t553 -183.5q162 0 316.5 49t287.5 142l82 -117q-153 -115 -324.5 -173t-357.5 -58q-192 0 -353 48.5t-286 143.5q-155 121 -232 279t-77 358zM760 444q0 -92 40.5 -140t117.5 -48q83 0 151.5 63t93.5 164l54 217 q-13 81 -57.5 123.5t-117.5 42.5q-114 0 -198 -124t-84 -298z" />
<glyph unicode="A" horiz-adv-x="1417" d="M-41 0v231h156l313 969h-192v221h948v-221h-170l315 -969h129v-231h-631v231h152l-78 267h-412l-75 -267h157v-231h-612zM543 682h309l-154 526z" />
<glyph unicode="B" horiz-adv-x="1294" d="M33 0v231h151v969h-151v221h620q259 0 386.5 -93.5t127.5 -285.5q0 -110 -51 -177.5t-166 -108.5q129 -47 195.5 -137.5t66.5 -217.5q0 -198 -124 -299.5t-365 -101.5h-690zM522 225h109q129 0 186 44t57 143q0 110 -67.5 166.5t-200.5 56.5h-84v-410zM522 844h86 q114 0 170 44.5t56 135.5q0 96 -50.5 138t-167.5 42h-94v-360z" />
<glyph unicode="C" horiz-adv-x="1554" d="M61 709q0 163 52.5 298t154.5 236t232 152t282 51q141 0 250.5 -44t190.5 -132v151h211v-491h-211q-79 142 -174 208t-222 66q-180 0 -284.5 -131t-104.5 -358q0 -229 105 -359.5t288 -130.5q150 0 256.5 91.5t161.5 267.5l252 -121q-83 -240 -260.5 -366t-433.5 -126 q-161 0 -295.5 52.5t-239.5 154.5q-103 104 -157 239t-54 292z" />
<glyph unicode="D" horiz-adv-x="1491" d="M33 0v231h151v969h-151v221h696q333 0 517 -186t184 -524t-184 -524.5t-517 -186.5h-696zM531 231q28 -3 54 -4.5t50 -1.5q212 0 315 121t103 371q0 245 -110.5 366t-334.5 121q-13 0 -28.5 -0.5t-48.5 -3.5v-969z" />
<glyph unicode="E" horiz-adv-x="1280" d="M33 0v231h151v969h-151v221h1192v-440h-256v219h-439v-348h363v-234h-363v-387h439v234h256v-465h-1192z" />
<glyph unicode="F" horiz-adv-x="1214" d="M33 0v231h151v969h-151v221h1153v-440h-256v219h-400v-348h301v-234h-301v-387h193v-231h-690z" />
<glyph unicode="G" horiz-adv-x="1602" d="M61 709q0 162 53 297t156 237q102 100 233.5 151.5t287.5 51.5q142 0 252.5 -44t191.5 -132v151h211v-491h-211q-82 143 -177.5 208.5t-221.5 65.5q-183 0 -288.5 -131t-105.5 -358q0 -229 105.5 -359.5t290.5 -130.5q145 0 237 71t105 191h-248v230h606v-43 q0 -329 -192 -516t-531 -187q-163 0 -300 52.5t-241 154.5q-103 102 -158 238t-55 293z" />
<glyph unicode="H" horiz-adv-x="1470" d="M33 0v231h151v969h-151v221h629v-221h-132v-326h408v326h-129v221h627v-221h-152v-969h152v-231h-627v231h129v412h-408v-412h132v-231h-629z" />
<glyph unicode="I" horiz-adv-x="717" d="M33 0v231h151v969h-151v221h649v-221h-152v-969h152v-231h-649z" />
<glyph unicode="J" horiz-adv-x="717" d="M-68 -41q29 -9 57.5 -13.5t53.5 -4.5q82 0 114.5 45.5t32.5 171.5v1042h-176v221h674v-221h-151v-1038q0 -258 -101.5 -376t-322.5 -118q-43 0 -87.5 7t-93.5 22v262z" />
<glyph unicode="K" horiz-adv-x="1403" d="M33 0v231h151v969h-151v221h649v-221h-152v-969h152v-231h-649zM539 752l432 448h-156v221h588v-221h-119l-389 -407l442 -562h152v-231h-703v231h150z" />
<glyph unicode="L" horiz-adv-x="1214" d="M33 0v231h151v969h-151v221h649v-221h-152v-969h390v437h223v-668h-1110z" />
<glyph unicode="M" horiz-adv-x="1913" d="M33 0v231h147v969h-147v221h592l311 -876l321 876h625v-221h-147v-969h147v-231h-631v231h148v969l-438 -1200h-130l-430 1200v-969h148v-231h-516z" />
<glyph unicode="N" horiz-adv-x="1540" d="M33 0v231h157v969h-157v221h555l526 -919l-10 698h-156v221h568v-221h-158v-1200h-305l-617 1071l8 -840h156v-231h-567z" />
<glyph unicode="O" horiz-adv-x="1602" d="M61 709q0 161 52 292.5t155 233.5q106 104 244 157.5t301 53.5q157 0 289 -53t233 -156q101 -102 153 -236.5t52 -291.5t-52.5 -291t-154.5 -238q-102 -103 -236.5 -156t-295.5 -53q-160 0 -294 52.5t-237 154.5q-103 105 -156 239t-53 292zM442 715q0 -220 99 -354 t260 -134t259.5 134t98.5 354q0 221 -98 354t-260 133t-260.5 -133t-98.5 -354z" />
<glyph unicode="P" horiz-adv-x="1305" d="M33 0v231h151v969h-151v221h672q282 0 412 -106t130 -336q0 -233 -131.5 -343t-410.5 -110h-175v-295h152v-231h-649zM530 758h66q153 0 220 52t67 169t-67 169t-220 52h-66v-442z" />
<glyph unicode="Q" horiz-adv-x="1602" d="M61 709q0 159 52.5 292t154.5 234q106 103 242.5 157t290.5 54q164 0 297.5 -52t234.5 -155q102 -103 154.5 -238t52.5 -292q0 -281 -154.5 -474t-424.5 -249q71 -42 139 -62t135 -20q19 0 45.5 2.5t62.5 7.5l-71 -223q-15 -8 -35 -12.5t-45 -4.5q-43 0 -88.5 9.5 t-91.5 27.5q-37 14 -103 43q-159 68 -229 68q-52 0 -101 -20.5t-98 -63.5l-108 133q55 54 110.5 85t111.5 40q-252 72 -393 259.5t-141 453.5zM442 715q0 -220 99 -354t260 -134t259.5 134t98.5 354q0 221 -98 354t-260 133t-260.5 -133t-98.5 -354z" />
<glyph unicode="R" horiz-adv-x="1374" d="M33 0v231h151v969h-151v221h672q287 0 414.5 -94t127.5 -305q0 -137 -61.5 -223t-179.5 -115l229 -453h162v-231h-398l-321 627h-148v-396h152v-231h-649zM530 852h93q141 0 200.5 40.5t59.5 133.5t-60.5 133.5t-199.5 40.5h-93v-348z" />
<glyph unicode="S" horiz-adv-x="1206" d="M98 1047q0 175 114.5 287t295.5 112q87 0 162.5 -26.5t148.5 -82.5v84h230v-422l-230 1q-1 99 -61 161t-156 62q-73 0 -117.5 -39t-44.5 -103q0 -53 33.5 -91t118.5 -77l186 -84q178 -80 261 -187.5t83 -254.5q0 -187 -118 -302.5t-310 -115.5q-101 0 -192 31.5 t-160 89.5v-90h-227v487h227q2 -136 65.5 -206t184.5 -70q83 0 133.5 42t50.5 109q0 64 -42 110.5t-159 102.5l-202 99q-144 68 -209.5 157.5t-65.5 215.5z" />
<glyph unicode="T" horiz-adv-x="1251" d="M25 868v553h1204v-553h-230v332h-200v-969h196v-231h-739v231h197v969h-199v-332h-229z" />
<glyph unicode="U" horiz-adv-x="1442" d="M20 1200v221h648v-221h-142v-647q0 -167 49.5 -247.5t153.5 -80.5q105 0 156 80.5t51 247.5v647h-139v221h622v-221h-155v-612q0 -154 -16 -245t-50 -146q-71 -117 -186.5 -171.5t-292.5 -54.5q-173 0 -288.5 55t-186.5 171q-36 57 -52 148t-16 243v612h-156z" />
<glyph unicode="V" horiz-adv-x="1337" d="M-31 1200v221h625v-221h-129l215 -741l223 741h-153v221h606v-221h-133l-410 -1200h-297l-407 1200h-140z" />
<glyph unicode="W" horiz-adv-x="1929" d="M-20 1200v221h581v-221h-121l201 -756l207 756h-117v221h496v-221h-117l207 -756l207 756h-117v221h537v-221h-125l-381 -1200h-273l-202 729l-199 -729h-275l-380 1200h-129z" />
<glyph unicode="X" horiz-adv-x="1337" d="M-68 0v231h189l350 502l-326 467h-157v221h655v-221h-125l182 -256l179 256h-103v221h557v-221h-153l-332 -473l346 -496h184v-231h-692v231h137l-202 289l-205 -289h123v-231h-607z" />
<glyph unicode="Y" horiz-adv-x="1229" d="M-72 1200v221h650v-221h-125l188 -317l190 317h-120v221h587v-221h-159l-365 -606v-363h184v-231h-714v231h184v398l-342 571h-158z" />
<glyph unicode="Z" horiz-adv-x="1204" d="M35 0v231l653 967h-377v-250h-231v473h1046v-204l-661 -986h444v295h232v-526h-1106z" />
<glyph unicode="[" horiz-adv-x="872" d="M266 -303v1724h559v-192h-268v-1338h268v-194h-559z" />
<glyph unicode="\" horiz-adv-x="653" d="M-12 1446h168l561 -1636h-168z" />
<glyph unicode="]" horiz-adv-x="872" d="M45 -109h270v1338h-270v192h561v-1724h-561v194z" />
<glyph unicode="^" horiz-adv-x="2048" d="M416 899l481 561h252l481 -561h-235l-371 371l-373 -371h-235z" />
<glyph unicode="_" horiz-adv-x="1024" d="M0 -279h1024v-204h-1024v204z" />
<glyph unicode="`" horiz-adv-x="1024" d="M219 1518h258l197 -371h-142z" />
<glyph unicode="a" horiz-adv-x="1118" d="M53 289q0 163 97 259.5t262 96.5q55 0 118 -14t134 -41v61q0 98 -43 145.5t-132 47.5q-61 0 -108.5 -23t-81.5 -69l-223 49q28 111 139.5 173t282.5 62q159 0 264 -38t156 -115q26 -38 37.5 -89.5t11.5 -162.5v-49v-359h143v-223h-446v70q-61 -48 -135.5 -73.5 t-155.5 -25.5q-147 0 -233.5 85.5t-86.5 232.5zM352 309q0 -60 32.5 -96.5t86.5 -36.5q45 0 92.5 23.5t100.5 70.5v117q-43 32 -85 48t-83 16q-68 0 -106 -37.5t-38 -104.5z" />
<glyph unicode="b" horiz-adv-x="1262" d="M23 0v223h133v981h-133v217h436v-553q69 73 145 108.5t162 35.5q190 0 313 -150.5t123 -386.5q0 -226 -117.5 -365t-308.5 -139q-98 0 -177 40.5t-140 121.5v-133h-436zM457 496q0 -138 57.5 -216.5t157.5 -78.5q101 0 159 78.5t58 216.5q0 137 -58 214.5t-159 77.5 q-100 0 -157.5 -77.5t-57.5 -214.5z" />
<glyph unicode="c" horiz-adv-x="1139" d="M57 504q0 234 140.5 383t359.5 149q93 0 166 -28t131 -86v90h217v-414h-229q-29 93 -91.5 143t-150.5 50q-111 0 -173 -75.5t-62 -209.5q0 -138 62.5 -212.5t178.5 -74.5q89 0 150.5 46.5t103.5 144.5l238 -121q-79 -157 -207.5 -237.5t-300.5 -80.5q-241 0 -387 145.5 t-146 387.5z" />
<glyph unicode="d" horiz-adv-x="1262" d="M59 475q0 236 123 386.5t314 150.5q85 0 161 -35.5t146 -108.5v336h-133v217h436v-1198h133v-223h-436v133q-62 -81 -140.5 -121.5t-177.5 -40.5q-190 0 -308 139t-118 365zM373 496q0 -138 58 -216.5t159 -78.5q99 0 156 78.5t57 216.5q0 137 -57 214.5t-156 77.5 q-101 0 -159 -77.5t-58 -214.5z" />
<glyph unicode="e" horiz-adv-x="1161" d="M57 504q0 241 143 386.5t380 145.5q239 0 379.5 -153.5t140.5 -417.5v-16h-729q6 -122 68.5 -187t172.5 -65q76 0 132.5 34t91.5 101l237 -76q-57 -135 -187 -210t-306 -75q-236 0 -379.5 146t-143.5 387zM373 621h403q-6 88 -61 140t-142 52q-86 0 -140 -52t-60 -140z " />
<glyph unicode="f" horiz-adv-x="643" d="M25 0v223h131v572h-131v217h131v110q0 151 98 237.5t268 86.5q124 0 203.5 -50t116.5 -151l-254 -92q-13 44 -31 65t-43 21t-39 -24.5t-14 -69.5v-133h160v-217h-160v-572h160v-223h-596z" />
<glyph unicode="g" horiz-adv-x="1266" d="M63 498q0 219 125.5 366.5t311.5 147.5q90 0 169 -38.5t150 -117.5v156h424v-217h-133v-668q0 -131 -21 -202.5t-69 -125.5q-69 -75 -185 -115t-266 -40q-128 0 -240 31t-198 92l152 174q80 -37 151 -54.5t135 -17.5q123 0 182.5 54t59.5 165q0 11 -1 24l-3 41 q-62 -77 -141 -115t-177 -38q-195 0 -310.5 134t-115.5 364zM377 496q0 -138 58 -216.5t159 -78.5q99 0 157 78.5t58 216.5q0 137 -57.5 214.5t-157.5 77.5q-101 0 -159 -77.5t-58 -214.5z" />
<glyph unicode="h" horiz-adv-x="1186" d="M25 0v223h131v981h-131v217h436v-510q83 53 153.5 77t143.5 24q134 0 205 -86.5t71 -249.5v-453h142v-223h-449v600q0 90 -25.5 128t-85.5 38q-38 0 -77.5 -16.5t-75.5 -49.5v-477h151v-223h-589z" />
<glyph unicode="i" horiz-adv-x="627" d="M33 0v223h133v572h-133v217h436v-789h143v-223h-579zM137 1278q0 70 48.5 119t117.5 49q70 0 120 -49.5t50 -118.5q0 -68 -50 -117t-120 -49t-118 48t-48 118z" />
<glyph unicode="j" horiz-adv-x="590" d="M-68 -111q10 0 26 -1t24 -1q98 0 134 37t36 150v721h-132v217h435v-971q0 -205 -97 -302t-301 -97q-28 0 -59.5 3t-65.5 9v235zM123 1278q0 70 48 119t118 49q69 0 119.5 -49.5t50.5 -118.5q0 -68 -50 -117t-120 -49t-118 48t-48 118z" />
<glyph unicode="k" horiz-adv-x="1194" d="M25 0v223h131v981h-131v217h438v-1198h151v-223h-589zM469 510l322 285h-185v217h580v-217h-111l-278 -250l268 -322h121v-223h-299z" />
<glyph unicode="l" horiz-adv-x="616" d="M25 0v223h131v981h-131v217h436v-1198h141v-223h-577z" />
<glyph unicode="m" horiz-adv-x="1765" d="M33 0v223h133v570h-133v219h436v-101q80 52 150 76.5t137 24.5q79 0 139.5 -30t95.5 -87q109 61 190 89t148 28q141 0 213 -85t72 -251v-453h143v-223h-448v600q0 90 -25.5 128t-85.5 38q-39 0 -79 -17t-77 -49v-477h144v-223h-449v600q0 90 -25.5 128t-84.5 38 q-40 0 -80 -17t-76 -49v-477h154v-223h-592z" />
<glyph unicode="n" horiz-adv-x="1194" d="M33 0v223h133v570h-133v219h436v-101q83 53 153.5 77t143.5 24q134 0 205 -86.5t71 -249.5v-453h144v-223h-449v600q0 90 -25.5 128t-84.5 38q-40 0 -80 -17t-76 -49v-477h154v-223h-592z" />
<glyph unicode="o" horiz-adv-x="1184" d="M57 504q0 240 146 386t387 146t388.5 -146t147.5 -386q0 -239 -148.5 -386t-387.5 -147q-241 0 -387 145.5t-146 387.5zM365 506q0 -133 60.5 -210t164.5 -77q105 0 165 76.5t60 210.5q0 132 -60 207t-165 75q-104 0 -164.5 -75t-60.5 -207z" />
<glyph unicode="p" horiz-adv-x="1262" d="M23 -109h133v904h-133v217h423v-156q71 79 150.5 117.5t169.5 38.5q190 0 313 -150.5t123 -386.5q0 -226 -117.5 -365t-308.5 -139q-98 0 -177 40.5t-140 121.5v-242h147v-223h-583v223zM457 496q0 -138 57.5 -216.5t157.5 -78.5q101 0 159 78.5t58 216.5 q0 137 -58 214.5t-159 77.5q-100 0 -157.5 -77.5t-57.5 -214.5z" />
<glyph unicode="q" horiz-adv-x="1262" d="M59 475q0 236 123 386.5t314 150.5q90 0 169 -38.5t150 -117.5v156h424v-217h-133v-904h133v-223h-584v223h148v242q-62 -81 -140.5 -121.5t-177.5 -40.5q-190 0 -308 139t-118 365zM373 496q0 -138 58 -216.5t159 -78.5q99 0 156 78.5t57 216.5q0 137 -57 214.5 t-156 77.5q-101 0 -159 -77.5t-58 -214.5z" />
<glyph unicode="r" horiz-adv-x="848" d="M33 0v223h133v572h-133v217h409v-240q46 137 137 200.5t238 63.5v-313q-181 -5 -264.5 -80.5t-83.5 -236.5v-183h158v-223h-594z" />
<glyph unicode="s" horiz-adv-x="1014" d="M63 719q0 143 96 230t253 87q64 0 127.5 -17.5t128.5 -53.5v47h227v-293h-227q-31 55 -85.5 83.5t-127.5 28.5q-53 0 -84 -21t-31 -56q0 -34 30.5 -53t116.5 -35l166 -33q151 -29 223 -107.5t72 -212.5q0 -152 -100.5 -247t-261.5 -95q-65 0 -129.5 17t-130.5 51v-39 h-238v356h238v-4q0 -78 55 -123t151 -45q65 0 102.5 27.5t37.5 73.5q0 70 -164 105q-15 3 -24 5l-175 39q-118 26 -182 100t-64 185z" />
<glyph unicode="t" horiz-adv-x="664" d="M25 795v217h116v114l305 258v-372h185v-217h-185v-435q0 -83 18 -110t66 -27q23 0 47.5 6.5t53.5 20.5v-225q-51 -27 -105.5 -40.5t-115.5 -13.5q-149 0 -209 63t-60 224v537h-116z" />
<glyph unicode="u" horiz-adv-x="1186" d="M10 788v224h449v-602q0 -115 23.5 -154t84.5 -39q38 0 78.5 17.5t77.5 50.5v503h-154v224h459v-795h133v-217h-436v72q-83 -53 -153.5 -77t-143.5 -24q-134 0 -205 87t-71 251v479h-142z" />
<glyph unicode="v" horiz-adv-x="1104" d="M-39 795v217h576v-217h-121l164 -494l182 494h-123v217h504v-217h-146l-313 -795h-272l-310 795h-141z" />
<glyph unicode="w" horiz-adv-x="1626" d="M-33 795v217h545v-217h-111l125 -453l191 670h262l197 -670l131 453h-107v217h453v-217h-142l-241 -795h-264l-197 645l-182 -645h-275l-243 795h-142z" />
<glyph unicode="x" horiz-adv-x="1038" d="M-2 0v223h141l205 273l-211 299h-113v217h328l184 -281l199 281h273v-217h-132l-192 -260l217 -312h145v-223h-354l-196 299l-213 -299h-281z" />
<glyph unicode="y" horiz-adv-x="1104" d="M-29 795v217h553v-217h-114l186 -449l164 449h-107v217h475v-217h-135l-440 -1127h-358v217h213l45 111l-349 799h-133z" />
<glyph unicode="z" horiz-adv-x="995" d="M31 0v205l569 604h-321v-145h-205v348h870v-217l-557 -590h361v157h202v-362h-919z" />
<glyph unicode="{" horiz-adv-x="1024" d="M158 426v209q7 0 21 -1t20 -1q120 0 171.5 58t51.5 196v250q0 143 23.5 201t80.5 92q47 25 114 37t167 12q12 0 37 -1t39 -1v-209q-9 0 -25 1t-22 1q-101 0 -136.5 -38.5t-35.5 -162.5v-240q0 -148 -45 -210t-162 -89q117 -27 162 -88t45 -209v-241q0 -123 35 -161 t137 -38q6 0 22 1t25 1v-209q-14 0 -39 -1t-37 -1q-100 0 -167 12t-114 37q-57 34 -80.5 91.5t-23.5 199.5v252q0 137 -51 194.5t-172 57.5q-6 0 -20 -1t-21 -1z" />
<glyph unicode="|" horiz-adv-x="1024" d="M410 -483v2048h206v-2048h-206z" />
<glyph unicode="}" horiz-adv-x="1024" d="M143 -205q9 0 25 -1t22 -1q101 0 136.5 38.5t35.5 160.5v239q0 150 45 211.5t162 87.5q-117 27 -162 89t-45 210v242q0 122 -35.5 160.5t-136.5 38.5q-6 0 -22 -1t-25 -1v209h68q110 0 177 -12t112 -38q57 -32 80.5 -91.5t23.5 -198.5v-252q0 -137 51 -194.5t172 -57.5 q6 0 20 1t21 1v-209h-37q-125 0 -176 -56t-51 -194v-252q0 -143 -23.5 -201t-80.5 -90q-47 -25 -114 -37t-167 -12q-12 0 -37 1t-39 1v209z" />
<glyph unicode="~" horiz-adv-x="1706" d="M178 418v221q107 72 204 107.5t183 35.5q117 0 291 -58l4 -1l55 -19q155 -55 240 -55t175 37t200 117v-221q-104 -71 -196.5 -104.5t-182.5 -33.5q-46 0 -92 8t-92 23q-24 8 -71 25q-219 75 -333 75q-85 0 -177.5 -37.5t-207.5 -119.5z" />
<glyph d="M0 520l27 131h94q0 12 -1 29t-1 29q0 32 0.5 47t1.5 30h-121l27 132h106q40 266 152.5 397t302.5 131q66 0 122 -31t83 -84v92h217v-415h-217q-15 112 -56.5 167.5t-111.5 55.5q-79 0 -120.5 -71t-60.5 -242h408l-43 -132h-375q-1 -15 -1.5 -29.5t-0.5 -47.5v-58h336 l-43 -131h-282q11 -172 52.5 -248.5t122.5 -76.5q66 0 108 65t58 193l244 -74q-53 -211 -157 -309.5t-271 -98.5q-202 0 -318 135.5t-153 413.5h-129z" />
<glyph unicode="&#x20ac;" d="M0 520l27 131h94q0 12 -1 29t-1 29q0 32 0.5 47t1.5 30h-121l27 132h106q40 266 152.5 397t302.5 131q66 0 122 -31t83 -84v92h217v-415h-217q-15 112 -56.5 167.5t-111.5 55.5q-79 0 -120.5 -71t-60.5 -242h408l-43 -132h-375q-1 -15 -1.5 -29.5t-0.5 -47.5v-58h336 l-43 -131h-282q11 -172 52.5 -248.5t122.5 -76.5q66 0 108 65t58 193l244 -74q-53 -211 -157 -309.5t-271 -98.5q-202 0 -318 135.5t-153 413.5h-129z" />
<glyph unicode="&#xa0;" />
<glyph unicode="&#xa1;" horiz-adv-x="588" d="M137 1090v331h314v-331h-314zM141 0v410l78 518h152l75 -518v-410h-305z" />
<glyph unicode="&#xa2;" d="M43 520q0 225 133 370.5t336 145.5q26 0 56 -4t63 -12l82 260h137l-100 -314l28 -26l47 -47v119h181v-404h-220q-12 45 -37.5 82.5t-64.5 67.5l-162 -510q13 -3 26.5 -4.5t26.5 -1.5q74 0 133 47.5t97 136.5l225 -115q-74 -150 -195 -229.5t-278 -79.5q-22 0 -49.5 2.5 t-62.5 7.5l-85 -274h-137l99 311q-136 59 -207.5 180t-71.5 291zM332 518q0 -60 17 -114t52 -103l158 496q-102 0 -164.5 -76.5t-62.5 -202.5z" />
<glyph unicode="&#xa3;" d="M10 213q0 105 66.5 174.5t167.5 69.5q35 0 75 -8.5t84 -24.5q2 7 2.5 15t0.5 24q0 39 -8 75t-23 70h-307v191h206q-54 100 -80 178t-26 139q0 154 114 242t314 88q188 0 288.5 -94t110.5 -279l-225 -26q-8 116 -49 167.5t-125 51.5q-66 0 -106.5 -41t-40.5 -107 q0 -59 75 -224l43 -95h269v-191h-218q5 -29 7 -54t2 -48q0 -46 -8.5 -93.5t-24.5 -97.5q72 -28 105.5 -37.5t54.5 -9.5q66 0 101 48.5t44 151.5l152 -36q-17 -235 -89 -348t-204 -113q-66 0 -129.5 31t-126.5 94q-56 -63 -119.5 -94t-138.5 -31q-103 0 -168.5 67.5 t-65.5 174.5zM160 231q0 -42 25.5 -69t64.5 -27q34 0 63.5 23t55.5 69q-37 42 -69.5 62t-61.5 20q-37 0 -57.5 -21t-20.5 -57z" />
<glyph unicode="&#xa4;" d="M0 520l27 131h94q0 12 -1 29t-1 29q0 32 0.5 47t1.5 30h-121l27 132h106q40 266 152.5 397t302.5 131q66 0 122 -31t83 -84v92h217v-415h-217q-15 112 -56.5 167.5t-111.5 55.5q-79 0 -120.5 -71t-60.5 -242h408l-43 -132h-375q-1 -15 -1.5 -29.5t-0.5 -47.5v-58h336 l-43 -131h-282q11 -172 52.5 -248.5t122.5 -76.5q66 0 108 65t58 193l244 -74q-53 -211 -157 -309.5t-271 -98.5q-202 0 -318 135.5t-153 413.5h-129z" />
<glyph unicode="&#xa5;" horiz-adv-x="1233" d="M-55 1200v221h628v-221h-135l203 -352l209 352h-131v221h563v-221h-160l-129 -217h183v-131h-263l-86 -135h349v-131h-418v-355h182v-231h-680v231h184v355h-389v131h336l-80 135h-256v131h178l-131 217h-157z" />
<glyph unicode="&#xa6;" horiz-adv-x="1024" d="M410 -350v758h206v-758h-206zM410 674v758h206v-758h-206z" />
<glyph unicode="&#xa7;" horiz-adv-x="1204" d="M82 766q0 102 84.5 171t214.5 69q-37 40 -55.5 86.5t-18.5 101.5q0 117 81 173t249 56h356v-311h-215v141h-53q-86 0 -119 -18.5t-33 -63.5q0 -28 22 -68t56 -73l361 -352q53 -52 83.5 -113t30.5 -114q0 -99 -78.5 -167t-203.5 -75q50 -48 75 -101.5t25 -115.5 q0 -118 -80.5 -174t-249.5 -56h-385v312h215v-142h80q86 0 119 19t33 63q0 28 -21.5 68t-56.5 74l-395 383q-60 58 -90.5 115.5t-30.5 111.5zM365 776q0 -32 44.5 -91t129.5 -138q101 -96 154.5 -134t84.5 -38q35 0 57.5 19t22.5 48q0 33 -38 83t-136 145 q-100 96 -154.5 135t-87.5 39q-34 0 -55.5 -19t-21.5 -49z" />
<glyph unicode="&#xa8;" horiz-adv-x="1024" d="M199 1331q0 51 39.5 91t91.5 40q53 0 91 -38.5t38 -92.5q0 -58 -36 -94.5t-93 -36.5q-56 0 -93.5 38t-37.5 93zM563 1331q0 51 40 91t91 40q54 0 92.5 -38.5t38.5 -92.5q0 -58 -36.5 -94.5t-94.5 -36.5q-55 0 -93 38t-38 93z" />
<glyph unicode="&#xa9;" horiz-adv-x="1706" d="M111 733q0 149 56 284.5t163 244.5q105 106 238 161.5t284 55.5q152 0 287.5 -56t242.5 -163q105 -105 160 -240.5t55 -286.5q0 -152 -54.5 -284t-160.5 -236q-111 -108 -248 -165.5t-282 -57.5q-147 0 -280.5 56.5t-241.5 164.5q-107 106 -163 240.5t-56 281.5zM233 735 q0 -125 47 -237t136 -201q88 -88 201 -135t237 -47t237.5 47t204.5 137q88 86 133.5 197t45.5 239q0 126 -46.5 238.5t-134.5 200.5q-89 89 -201 135.5t-239 46.5q-128 0 -239.5 -46t-198.5 -134q-89 -90 -136 -203.5t-47 -237.5zM453 729q0 206 109.5 328.5t293.5 122.5 q152 0 250.5 -78t105.5 -205h-188q-8 70 -53 108.5t-119 38.5q-91 0 -143 -81.5t-52 -227.5q0 -147 52 -224t151 -77q73 0 117 42t53 119l193 1q-8 -139 -109 -223t-260 -84q-186 0 -293.5 118t-107.5 322z" />
<glyph unicode="&#xaa;" horiz-adv-x="840" d="M41 918q0 114 73 181.5t195 67.5q39 0 86 -9.5t103 -29.5v43q0 69 -32 101.5t-99 32.5q-47 0 -82 -16t-60 -48l-168 35q21 77 104 120.5t212 43.5q120 0 198.5 -26.5t116.5 -80.5q20 -27 28.5 -63t8.5 -113v-35v-252h109v-155h-336v49q-45 -34 -101 -52t-116 -18 q-111 0 -175.5 60.5t-64.5 163.5zM264 932q0 -43 24.5 -68.5t65.5 -25.5q33 0 68.5 16t75.5 49v82q-32 23 -63 34t-62 11q-52 0 -80.5 -25.5t-28.5 -72.5z" />
<glyph unicode="&#xab;" horiz-adv-x="946" d="M57 506l260 311h213l-258 -311l258 -313h-213zM416 506l260 311h213l-258 -311l258 -313h-213z" />
<glyph unicode="&#xac;" horiz-adv-x="1706" d="M254 668v196h1198v-502h-199v306h-999z" />
<glyph unicode="&#xad;" horiz-adv-x="682" d="M76 383v264h530v-264h-530z" />
<glyph unicode="&#xae;" horiz-adv-x="1706" d="M111 733q0 102 27 198.5t81 188.5q101 170 267 264.5t366 94.5q154 0 290.5 -57.5t243.5 -166.5q103 -104 157 -238t54 -284q0 -152 -56 -287.5t-163 -238.5q-107 -105 -243.5 -161t-282.5 -56q-149 0 -285 58t-243 167q-104 105 -158.5 238.5t-54.5 279.5zM233 735 q0 -124 46 -235.5t133 -198.5q89 -91 203 -139.5t237 -48.5q120 0 233.5 47t206.5 135q87 84 135 196t48 232q0 133 -44.5 245t-132.5 201q-90 93 -202.5 140t-241.5 47q-127 0 -236 -44.5t-196 -131.5q-91 -91 -140 -206.5t-49 -238.5zM545 336v825h323q176 0 264.5 -59.5 t88.5 -177.5q0 -82 -48 -140t-133 -79l185 -369h-224l-157 338h-99v-338h-200zM745 795h99q88 0 129 28t41 88q0 63 -44 93t-136 30h-89v-239z" />
<glyph unicode="&#xaf;" horiz-adv-x="1024" d="M225 1251v156h574v-156h-574z" />
<glyph unicode="&#xb0;" horiz-adv-x="674" d="M35 1159q0 127 88.5 216t214.5 89t214.5 -89.5t88.5 -215.5q0 -125 -89 -214t-216 -89q-126 0 -213.5 88t-87.5 215zM162 1161q0 -74 51 -125t125 -51q72 0 123 52t51 124t-51 123t-123 51q-73 0 -124.5 -51t-51.5 -123z" />
<glyph unicode="&#xb1;" horiz-adv-x="1706" d="M254 -2v199h1198v-199h-1198zM254 698v199h498v326h202v-326h498v-199h-498v-325h-202v325h-498z" />
<glyph unicode="&#xb2;" horiz-adv-x="705" d="M41 604q0 88 29.5 159t93.5 138q36 38 117 106.5t110 108.5q18 22 27.5 49.5t9.5 55.5q0 41 -23 63.5t-65 22.5q-51 0 -76.5 -40.5t-25.5 -119.5v-19h-177v39q0 126 79.5 197.5t219.5 71.5q125 0 199 -60.5t74 -161.5q0 -71 -35.5 -125.5t-157.5 -142.5 q-121 -85 -161 -135.5t-47 -110.5h255v123h146v-256h-589q-2 7 -2.5 14.5t-0.5 22.5z" />
<glyph unicode="&#xb3;" horiz-adv-x="705" d="M45 831v23h168q3 -83 31.5 -121.5t87.5 -38.5q54 0 84 35t30 96q0 68 -40.5 100.5t-124.5 32.5v134h4q73 0 111 30t38 88q0 47 -23 72t-67 25t-70 -30.5t-32 -90.5h-158q0 115 73.5 182.5t200.5 67.5q120 0 193.5 -62t73.5 -164q0 -69 -39.5 -116t-118.5 -72 q93 -22 138.5 -75t45.5 -138q0 -115 -84.5 -186.5t-220.5 -71.5q-145 0 -223 72.5t-78 207.5z" />
<glyph unicode="&#xb4;" horiz-adv-x="1024" d="M350 1147l197 371h258l-313 -371h-142z" />
<glyph unicode="&#xb5;" horiz-adv-x="1249" d="M-63 -438l268 1530h289l-76 -435q-15 -80 -23 -151.5t-8 -116.5q0 -93 42 -138.5t128 -45.5q100 0 155.5 82t92.5 291l90 514h289l-193 -1092h-268l18 117q-42 -78 -93.5 -114t-121.5 -36q-67 0 -119 29.5t-94 91.5l-90 -526h-286z" />
<glyph unicode="&#xb6;" horiz-adv-x="1024" d="M41 1130q0 158 107 253.5t284 95.5h551v-111h-113v-1368h-151v1368h-158v-1368h-153v784q-167 6 -267 101t-100 245z" />
<glyph unicode="&#xb7;" horiz-adv-x="532" d="M88 709q0 72 52 124t124 52t126 -53t54 -123q0 -75 -52 -127t-128 -52q-75 0 -125.5 51.5t-50.5 127.5z" />
<glyph unicode="&#xb8;" horiz-adv-x="1024" d="M229 -309q81 -21 146 -32t110 -11q53 0 78 17.5t25 55.5t-28 54t-93 16q-23 0 -35 -0.5t-22 -1.5v211h100v-90h14q118 0 177 -48t59 -143q0 -100 -66 -150t-198 -50q-52 0 -120 11t-147 32v129z" />
<glyph unicode="&#xb9;" horiz-adv-x="705" d="M129 567v133h127v594h-127v125h330v-719h114v-133h-444z" />
<glyph unicode="&#xba;" horiz-adv-x="889" d="M43 1067q0 168 109.5 270.5t289.5 102.5q182 0 293 -102.5t111 -270.5q0 -166 -112 -269.5t-292 -103.5t-289.5 102.5t-109.5 270.5zM274 1069q0 -93 45.5 -147t122.5 -54q79 0 124.5 54t45.5 147t-45.5 146t-124.5 53q-77 0 -122.5 -53t-45.5 -146z" />
<glyph unicode="&#xbb;" horiz-adv-x="946" d="M51 193l260 313l-260 311h215l260 -311l-260 -313h-215zM410 193l258 313l-258 311h213l262 -311l-262 -313h-213z" />
<glyph unicode="&#xbc;" horiz-adv-x="1686" d="M121 623v125h121v552h-121v119h315v-671h111v-125h-426zM330 -29l844 1475h180l-842 -1475h-182zM1016 307l387 502h151v-483h99v-113h-99v-88h93v-125h-359v125h92v88h-329q-8 29 -16 51t-19 43zM1161 319h223l5 297z" />
<glyph unicode="&#xbd;" horiz-adv-x="1686" d="M121 623v125h121v552h-121v119h315v-671h111v-125h-426zM330 -29l844 1475h180l-842 -1475h-182zM1055 35q0 81 27.5 147t86.5 129q34 34 111.5 99t105.5 102q17 21 26 46.5t9 49.5q0 40 -21 61t-63 21q-48 0 -73 -38t-25 -111v-19l-166 1q-1 7 -1.5 15t-0.5 21 q0 117 76.5 183.5t210.5 66.5q119 0 189.5 -55.5t70.5 -149.5q0 -66 -34 -117t-150 -135q-120 -82 -156.5 -127.5t-42.5 -99.5h244v115h139v-240h-563v35z" />
<glyph unicode="&#xbe;" horiz-adv-x="1686" d="M43 868v23h159q4 -77 31 -113.5t82 -36.5q53 0 82 32.5t29 90.5q0 63 -39 94t-119 31v123h4q70 0 106 28t36 83q0 43 -21.5 66.5t-62.5 23.5q-43 0 -67.5 -28.5t-31.5 -84.5h-151q0 108 70.5 170t191.5 62q116 0 185 -57.5t69 -151.5q0 -66 -37.5 -109.5t-114.5 -66.5 q90 -21 134.5 -70.5t44.5 -128.5q0 -107 -82 -174.5t-211 -67.5q-138 0 -212.5 68t-74.5 194zM330 -29l844 1475h180l-842 -1475h-182zM1016 307l387 502h151v-483h99v-113h-99v-88h93v-125h-359v125h92v88h-329q-8 29 -16 51t-19 43zM1161 319h223l5 297z" />
<glyph unicode="&#xbf;" horiz-adv-x="1063" d="M55 401q0 169 105.5 268t285.5 99h29l31 164h149l19 -383q-25 6 -50 9t-51 3q-97 0 -149.5 -47t-52.5 -135t50.5 -140.5t135.5 -52.5q82 0 131 54.5t49 146.5q0 6 -1 16t-1 15h285v-23q0 -190 -134.5 -307t-353.5 -117q-214 0 -345.5 119t-131.5 311zM426 1085v332h313 v-332h-313z" />
<glyph unicode="&#xc0;" horiz-adv-x="1417" d="M-41 0v231h156l313 969h-192v221h948v-221h-170l315 -969h129v-231h-631v231h152l-78 267h-412l-75 -267h157v-231h-612zM416 1928h258l197 -371h-142zM543 682h309l-154 526z" />
<glyph unicode="&#xc1;" horiz-adv-x="1417" d="M-41 0v231h156l313 969h-192v221h948v-221h-170l315 -969h129v-231h-631v231h152l-78 267h-412l-75 -267h157v-231h-612zM543 682h309l-154 526zM547 1557l197 371h258l-313 -371h-142z" />
<glyph unicode="&#xc2;" horiz-adv-x="1417" d="M-41 0v231h156l313 969h-192v221h948v-221h-170l315 -969h129v-231h-631v231h152l-78 267h-412l-75 -267h157v-231h-612zM394 1557l196 371h238l196 -371h-141l-174 217l-176 -217h-139zM543 682h309l-154 526z" />
<glyph unicode="&#xc3;" horiz-adv-x="1417" d="M-41 0v231h156l313 969h-192v221h948v-221h-170l315 -969h129v-231h-631v231h152l-78 267h-412l-75 -267h157v-231h-612zM392 1604q24 121 74 178.5t130 57.5q21 -1 42.5 -4.5t44.5 -10.5l92 -24q12 -5 25.5 -7t29.5 -2q32 0 53.5 21.5t32.5 64.5h110 q-26 -124 -77 -183.5t-131 -59.5q-22 0 -40 2.5t-34 7.5l-89 27q-19 5 -35 7.5t-30 2.5q-34 0 -55 -18.5t-33 -59.5h-110zM543 682h309l-154 526z" />
<glyph unicode="&#xc4;" horiz-adv-x="1417" d="M-41 0v231h156l313 969h-192v221h948v-221h-170l315 -969h129v-231h-631v231h152l-78 267h-412l-75 -267h157v-231h-612zM396 1741q0 51 39.5 91t91.5 40q53 0 91 -38.5t38 -92.5q0 -58 -36 -94.5t-93 -36.5q-56 0 -93.5 38t-37.5 93zM543 682h309l-154 526zM760 1741 q0 51 40 91t91 40q54 0 92.5 -38.5t38.5 -92.5q0 -58 -36.5 -94.5t-94.5 -36.5q-55 0 -93 38t-38 93z" />
<glyph unicode="&#xc5;" horiz-adv-x="1417" d="M-41 0v231h156l313 969h-192v201h948v-201h-170l315 -969h129v-231h-631v231h152l-78 267h-412l-75 -267h157v-231h-612zM455 1716q0 108 74 182t182 74q105 0 179.5 -74.5t74.5 -181.5t-73.5 -180.5t-180.5 -73.5q-108 0 -182 73.5t-74 180.5zM543 682h309l-154 526z M598 1716q0 -48 32 -79t81 -31q47 0 78.5 31.5t31.5 78.5t-32.5 80t-77.5 33q-48 0 -80.5 -32.5t-32.5 -80.5z" />
<glyph unicode="&#xc6;" horiz-adv-x="1948" d="M-90 0v231h160l430 969h-236v221h1618v-440h-256v219h-385v-348h309v-234h-309v-387h385v234h256v-465h-1151v231h160v387h-348l-166 -387h153v-231h-620zM643 852h238l12 381h-90z" />
<glyph unicode="&#xc7;" horiz-adv-x="1554" d="M61 709q0 163 52.5 298t154.5 236t232 152t282 51q141 0 250.5 -44t190.5 -132v151h211v-491h-211q-79 142 -174 208t-222 66q-180 0 -284.5 -131t-104.5 -358q0 -229 105 -359.5t288 -130.5q150 0 256.5 91.5t161.5 267.5l252 -121q-83 -240 -260.5 -366t-433.5 -126 q-161 0 -295.5 52.5t-239.5 154.5q-103 104 -157 239t-54 292zM495 -309q81 -21 146 -32t110 -11q53 0 78 17.5t25 55.5t-28 54t-93 16q-23 0 -35 -0.5t-22 -1.5v211h100v-90h14q118 0 177 -48t59 -143q0 -100 -66 -150t-198 -50q-52 0 -120 11t-147 32v129z" />
<glyph unicode="&#xc8;" horiz-adv-x="1280" d="M33 0v231h151v969h-151v221h1192v-440h-256v219h-439v-348h363v-234h-363v-387h439v234h256v-465h-1192zM360 1928h258l197 -371h-142z" />
<glyph unicode="&#xc9;" horiz-adv-x="1280" d="M33 0v231h151v969h-151v221h1192v-440h-256v219h-439v-348h363v-234h-363v-387h439v234h256v-465h-1192zM491 1557l197 371h258l-313 -371h-142z" />
<glyph unicode="&#xca;" horiz-adv-x="1280" d="M33 0v231h151v969h-151v221h1192v-440h-256v219h-439v-348h363v-234h-363v-387h439v234h256v-465h-1192zM338 1557l196 371h238l196 -371h-141l-174 217l-176 -217h-139z" />
<glyph unicode="&#xcb;" horiz-adv-x="1280" d="M33 0v231h151v969h-151v221h1192v-440h-256v219h-439v-348h363v-234h-363v-387h439v234h256v-465h-1192zM340 1741q0 51 39.5 91t91.5 40q53 0 91 -38.5t38 -92.5q0 -58 -36 -94.5t-93 -36.5q-56 0 -93.5 38t-37.5 93zM704 1741q0 51 40 91t91 40q54 0 92.5 -38.5 t38.5 -92.5q0 -58 -36.5 -94.5t-94.5 -36.5q-55 0 -93 38t-38 93z" />
<glyph unicode="&#xcc;" horiz-adv-x="717" d="M33 0v231h151v969h-151v221h649v-221h-152v-969h152v-231h-649zM65 1928h258l197 -371h-142z" />
<glyph unicode="&#xcd;" horiz-adv-x="717" d="M33 0v231h151v969h-151v221h649v-221h-152v-969h152v-231h-649zM196 1557l197 371h258l-313 -371h-142z" />
<glyph unicode="&#xce;" horiz-adv-x="717" d="M33 0v231h151v969h-151v221h649v-221h-152v-969h152v-231h-649zM43 1557l196 371h238l196 -371h-141l-174 217l-176 -217h-139z" />
<glyph unicode="&#xcf;" horiz-adv-x="717" d="M33 0v231h151v969h-151v221h649v-221h-152v-969h152v-231h-649zM45 1741q0 51 39.5 91t91.5 40q53 0 91 -38.5t38 -92.5q0 -58 -36 -94.5t-93 -36.5q-56 0 -93.5 38t-37.5 93zM409 1741q0 51 40 91t91 40q54 0 92.5 -38.5t38.5 -92.5q0 -58 -36.5 -94.5t-94.5 -36.5 q-55 0 -93 38t-38 93z" />
<glyph unicode="&#xd0;" horiz-adv-x="1503" d="M0 659v201h195v340h-152v221h694q334 0 518.5 -186.5t184.5 -523.5q0 -338 -184.5 -524.5t-518.5 -186.5h-694v231h152v428h-195zM526 232q30 -4 56.5 -5.5t50.5 -1.5q221 0 324.5 119t103.5 373q0 247 -110.5 367t-338.5 120q-26 0 -75 -3q-7 -1 -11 -1v-340h250v-201 h-250v-427z" />
<glyph unicode="&#xd1;" horiz-adv-x="1540" d="M33 0v231h157v969h-157v221h555l526 -919l-10 698h-156v221h568v-221h-158v-1200h-305l-617 1071l8 -840h156v-231h-567zM453 1604q24 121 74 178.5t130 57.5q21 -1 42.5 -4.5t44.5 -10.5l92 -24q12 -5 25.5 -7t29.5 -2q32 0 53.5 21.5t32.5 64.5h110 q-26 -124 -77 -183.5t-131 -59.5q-22 0 -40 2.5t-34 7.5l-89 27q-19 5 -35 7.5t-30 2.5q-34 0 -55 -18.5t-33 -59.5h-110z" />
<glyph unicode="&#xd2;" horiz-adv-x="1602" d="M61 709q0 161 52 292.5t155 233.5q106 104 244 157.5t301 53.5q157 0 289 -53t233 -156q101 -102 153 -236.5t52 -291.5t-52.5 -291t-154.5 -238q-102 -103 -236.5 -156t-295.5 -53q-160 0 -294 52.5t-237 154.5q-103 105 -156 239t-53 292zM442 715q0 -220 99 -354 t260 -134t259.5 134t98.5 354q0 221 -98 354t-260 133t-260.5 -133t-98.5 -354zM508 1928h258l197 -371h-142z" />
<glyph unicode="&#xd3;" horiz-adv-x="1602" d="M61 709q0 161 52 292.5t155 233.5q106 104 244 157.5t301 53.5q157 0 289 -53t233 -156q101 -102 153 -236.5t52 -291.5t-52.5 -291t-154.5 -238q-102 -103 -236.5 -156t-295.5 -53q-160 0 -294 52.5t-237 154.5q-103 105 -156 239t-53 292zM442 715q0 -220 99 -354 t260 -134t259.5 134t98.5 354q0 221 -98 354t-260 133t-260.5 -133t-98.5 -354zM639 1557l197 371h258l-313 -371h-142z" />
<glyph unicode="&#xd4;" horiz-adv-x="1602" d="M61 709q0 161 52 292.5t155 233.5q106 104 244 157.5t301 53.5q157 0 289 -53t233 -156q101 -102 153 -236.5t52 -291.5t-52.5 -291t-154.5 -238q-102 -103 -236.5 -156t-295.5 -53q-160 0 -294 52.5t-237 154.5q-103 105 -156 239t-53 292zM442 715q0 -220 99 -354 t260 -134t259.5 134t98.5 354q0 221 -98 354t-260 133t-260.5 -133t-98.5 -354zM486 1557l196 371h238l196 -371h-141l-174 217l-176 -217h-139z" />
<glyph unicode="&#xd5;" horiz-adv-x="1602" d="M61 709q0 161 52 292.5t155 233.5q106 104 244 157.5t301 53.5q157 0 289 -53t233 -156q101 -102 153 -236.5t52 -291.5t-52.5 -291t-154.5 -238q-102 -103 -236.5 -156t-295.5 -53q-160 0 -294 52.5t-237 154.5q-103 105 -156 239t-53 292zM442 715q0 -220 99 -354 t260 -134t259.5 134t98.5 354q0 221 -98 354t-260 133t-260.5 -133t-98.5 -354zM484 1604q24 121 74 178.5t130 57.5q21 -1 42.5 -4.5t44.5 -10.5l92 -24q12 -5 25.5 -7t29.5 -2q32 0 53.5 21.5t32.5 64.5h110q-26 -124 -77 -183.5t-131 -59.5q-22 0 -40 2.5t-34 7.5l-89 27 q-19 5 -35 7.5t-30 2.5q-34 0 -55 -18.5t-33 -59.5h-110z" />
<glyph unicode="&#xd6;" horiz-adv-x="1602" d="M61 709q0 161 52 292.5t155 233.5q106 104 244 157.5t301 53.5q157 0 289 -53t233 -156q101 -102 153 -236.5t52 -291.5t-52.5 -291t-154.5 -238q-102 -103 -236.5 -156t-295.5 -53q-160 0 -294 52.5t-237 154.5q-103 105 -156 239t-53 292zM442 715q0 -220 99 -354 t260 -134t259.5 134t98.5 354q0 221 -98 354t-260 133t-260.5 -133t-98.5 -354zM488 1741q0 51 39.5 91t91.5 40q53 0 91 -38.5t38 -92.5q0 -58 -36 -94.5t-93 -36.5q-56 0 -93.5 38t-37.5 93zM852 1741q0 51 40 91t91 40q54 0 92.5 -38.5t38.5 -92.5q0 -58 -36.5 -94.5 t-94.5 -36.5q-55 0 -93 38t-38 93z" />
<glyph unicode="&#xd7;" horiz-adv-x="1706" d="M276 160l451 450l-451 453l140 139l450 -450l451 450l141 -139l-450 -453l450 -450l-141 -140l-451 451l-450 -451z" />
<glyph unicode="&#xd8;" horiz-adv-x="1602" d="M61 709q0 161 52 294t155 234t240.5 155t292.5 54q107 0 199 -21.5t171 -64.5l109 145l154 -114l-109 -144q106 -102 160.5 -239t54.5 -299q0 -160 -52.5 -294.5t-154.5 -236.5q-100 -101 -235.5 -154t-296.5 -53q-111 0 -204.5 23t-172.5 69l-121 -165l-153 112l124 166 q-101 92 -157 231.5t-56 301.5zM442 715q0 -88 14.5 -156.5t43.5 -124.5l518 686q-47 41 -101.5 61.5t-115.5 20.5q-162 0 -260.5 -133t-98.5 -354zM584 311q45 -42 99 -63t118 -21q162 0 260 133.5t98 354.5q0 80 -14 149.5t-43 130.5z" />
<glyph unicode="&#xd9;" horiz-adv-x="1442" d="M20 1200v221h648v-221h-142v-647q0 -167 49.5 -247.5t153.5 -80.5q105 0 156 80.5t51 247.5v647h-139v221h622v-221h-155v-612q0 -154 -16 -245t-50 -146q-71 -117 -186.5 -171.5t-292.5 -54.5q-173 0 -288.5 55t-186.5 171q-36 57 -52 148t-16 243v612h-156zM442 1928 h258l197 -371h-142z" />
<glyph unicode="&#xda;" horiz-adv-x="1442" d="M20 1200v221h648v-221h-142v-647q0 -167 49.5 -247.5t153.5 -80.5q105 0 156 80.5t51 247.5v647h-139v221h622v-221h-155v-612q0 -154 -16 -245t-50 -146q-71 -117 -186.5 -171.5t-292.5 -54.5q-173 0 -288.5 55t-186.5 171q-36 57 -52 148t-16 243v612h-156zM573 1557 l197 371h258l-313 -371h-142z" />
<glyph unicode="&#xdb;" horiz-adv-x="1442" d="M20 1200v221h648v-221h-142v-647q0 -167 49.5 -247.5t153.5 -80.5q105 0 156 80.5t51 247.5v647h-139v221h622v-221h-155v-612q0 -154 -16 -245t-50 -146q-71 -117 -186.5 -171.5t-292.5 -54.5q-173 0 -288.5 55t-186.5 171q-36 57 -52 148t-16 243v612h-156zM420 1557 l196 371h238l196 -371h-141l-174 217l-176 -217h-139z" />
<glyph unicode="&#xdc;" horiz-adv-x="1442" d="M20 1200v221h648v-221h-142v-647q0 -167 49.5 -247.5t153.5 -80.5q105 0 156 80.5t51 247.5v647h-139v221h622v-221h-155v-612q0 -154 -16 -245t-50 -146q-71 -117 -186.5 -171.5t-292.5 -54.5q-173 0 -288.5 55t-186.5 171q-36 57 -52 148t-16 243v612h-156zM422 1741 q0 51 39.5 91t91.5 40q53 0 91 -38.5t38 -92.5q0 -58 -36 -94.5t-93 -36.5q-56 0 -93.5 38t-37.5 93zM786 1741q0 51 40 91t91 40q54 0 92.5 -38.5t38.5 -92.5q0 -58 -36.5 -94.5t-94.5 -36.5q-55 0 -93 38t-38 93z" />
<glyph unicode="&#xdd;" horiz-adv-x="1229" d="M-72 1200v221h650v-221h-125l188 -317l190 317h-120v221h587v-221h-159l-365 -606v-363h184v-231h-714v231h184v398l-342 571h-158zM452 1557l197 371h258l-313 -371h-142z" />
<glyph unicode="&#xde;" horiz-adv-x="1305" d="M33 0v231h151v969h-151v221h497v-221h175q278 0 411 -101t133 -313q0 -217 -133.5 -321.5t-410.5 -104.5h-175v-129h152v-231h-649zM530 592h68q145 0 215 47t70 145q0 100 -69 146.5t-216 46.5h-68v-385z" />
<glyph unicode="&#xdf;" horiz-adv-x="1223" d="M20 0v223h134v721q0 254 118 379t359 125q190 0 299.5 -92.5t109.5 -251.5q0 -95 -46 -156.5t-134 -83.5q141 -12 220 -124t79 -300q0 -213 -113.5 -333.5t-314.5 -120.5q-35 0 -70.5 5t-70.5 15v246q19 -3 37.5 -4.5t36.5 -1.5q101 0 154.5 54t53.5 157q0 121 -63 187.5 t-178 66.5q-18 0 -26.5 -0.5t-16.5 -1.5v235q87 10 129.5 47.5t42.5 104.5q0 64 -41 104.5t-107 40.5q-84 0 -119.5 -50t-35.5 -171v-797h55v-223h-492z" />
<glyph unicode="&#xe0;" horiz-adv-x="1118" d="M53 289q0 163 97 259.5t262 96.5q55 0 118 -14t134 -41v61q0 98 -43 145.5t-132 47.5q-61 0 -108.5 -23t-81.5 -69l-223 49q28 111 139.5 173t282.5 62q159 0 264 -38t156 -115q26 -38 37.5 -89.5t11.5 -162.5v-49v-359h143v-223h-446v70q-61 -48 -135.5 -73.5 t-155.5 -25.5q-147 0 -233.5 85.5t-86.5 232.5zM252 1518h258l197 -371h-142zM352 309q0 -60 32.5 -96.5t86.5 -36.5q45 0 92.5 23.5t100.5 70.5v117q-43 32 -85 48t-83 16q-68 0 -106 -37.5t-38 -104.5z" />
<glyph unicode="&#xe1;" horiz-adv-x="1118" d="M53 289q0 163 97 259.5t262 96.5q55 0 118 -14t134 -41v61q0 98 -43 145.5t-132 47.5q-61 0 -108.5 -23t-81.5 -69l-223 49q28 111 139.5 173t282.5 62q159 0 264 -38t156 -115q26 -38 37.5 -89.5t11.5 -162.5v-49v-359h143v-223h-446v70q-61 -48 -135.5 -73.5 t-155.5 -25.5q-147 0 -233.5 85.5t-86.5 232.5zM352 309q0 -60 32.5 -96.5t86.5 -36.5q45 0 92.5 23.5t100.5 70.5v117q-43 32 -85 48t-83 16q-68 0 -106 -37.5t-38 -104.5zM383 1147l197 371h258l-313 -371h-142z" />
<glyph unicode="&#xe2;" horiz-adv-x="1118" d="M53 289q0 163 97 259.5t262 96.5q55 0 118 -14t134 -41v61q0 98 -43 145.5t-132 47.5q-61 0 -108.5 -23t-81.5 -69l-223 49q28 111 139.5 173t282.5 62q159 0 264 -38t156 -115q26 -38 37.5 -89.5t11.5 -162.5v-49v-359h143v-223h-446v70q-61 -48 -135.5 -73.5 t-155.5 -25.5q-147 0 -233.5 85.5t-86.5 232.5zM230 1147l196 371h238l196 -371h-141l-174 217l-176 -217h-139zM352 309q0 -60 32.5 -96.5t86.5 -36.5q45 0 92.5 23.5t100.5 70.5v117q-43 32 -85 48t-83 16q-68 0 -106 -37.5t-38 -104.5z" />
<glyph unicode="&#xe3;" horiz-adv-x="1118" d="M53 289q0 163 97 259.5t262 96.5q55 0 118 -14t134 -41v61q0 98 -43 145.5t-132 47.5q-61 0 -108.5 -23t-81.5 -69l-223 49q28 111 139.5 173t282.5 62q159 0 264 -38t156 -115q26 -38 37.5 -89.5t11.5 -162.5v-49v-359h143v-223h-446v70q-61 -48 -135.5 -73.5 t-155.5 -25.5q-147 0 -233.5 85.5t-86.5 232.5zM228 1194q24 121 74 178.5t130 57.5q21 -1 42.5 -4.5t44.5 -10.5l92 -24q12 -5 25.5 -7t29.5 -2q32 0 53.5 21.5t32.5 64.5h110q-26 -124 -77 -183.5t-131 -59.5q-22 0 -40 2.5t-34 7.5l-89 27q-19 5 -35 7.5t-30 2.5 q-34 0 -55 -18.5t-33 -59.5h-110zM352 309q0 -60 32.5 -96.5t86.5 -36.5q45 0 92.5 23.5t100.5 70.5v117q-43 32 -85 48t-83 16q-68 0 -106 -37.5t-38 -104.5z" />
<glyph unicode="&#xe4;" horiz-adv-x="1118" d="M53 289q0 163 97 259.5t262 96.5q55 0 118 -14t134 -41v61q0 98 -43 145.5t-132 47.5q-61 0 -108.5 -23t-81.5 -69l-223 49q28 111 139.5 173t282.5 62q159 0 264 -38t156 -115q26 -38 37.5 -89.5t11.5 -162.5v-49v-359h143v-223h-446v70q-61 -48 -135.5 -73.5 t-155.5 -25.5q-147 0 -233.5 85.5t-86.5 232.5zM232 1331q0 51 39.5 91t91.5 40q53 0 91 -38.5t38 -92.5q0 -58 -36 -94.5t-93 -36.5q-56 0 -93.5 38t-37.5 93zM352 309q0 -60 32.5 -96.5t86.5 -36.5q45 0 92.5 23.5t100.5 70.5v117q-43 32 -85 48t-83 16q-68 0 -106 -37.5 t-38 -104.5zM596 1331q0 51 40 91t91 40q54 0 92.5 -38.5t38.5 -92.5q0 -58 -36.5 -94.5t-94.5 -36.5q-55 0 -93 38t-38 93z" />
<glyph unicode="&#xe5;" horiz-adv-x="1118" d="M53 289q0 163 97 259.5t262 96.5q55 0 118 -14t134 -41v61q0 98 -43 145.5t-132 47.5q-61 0 -108.5 -23t-81.5 -69l-223 49q28 111 139.5 173t282.5 62q159 0 264 -38t156 -115q26 -38 37.5 -89.5t11.5 -162.5v-49v-359h143v-223h-446v70q-61 -48 -135.5 -73.5 t-155.5 -25.5q-147 0 -233.5 85.5t-86.5 232.5zM276 1358q0 107 74.5 181.5t181.5 74.5q106 0 180 -75t74 -181q0 -108 -73 -181t-181 -73q-107 0 -181.5 73.5t-74.5 180.5zM352 309q0 -60 32.5 -96.5t86.5 -36.5q45 0 92.5 23.5t100.5 70.5v117q-43 32 -85 48t-83 16 q-68 0 -106 -37.5t-38 -104.5zM422 1358q0 -48 31 -79.5t79 -31.5q49 0 81 32t32 79q0 46 -33 79t-80 33t-78.5 -32t-31.5 -80z" />
<glyph unicode="&#xe6;" horiz-adv-x="1731" d="M55 295q0 160 100.5 255t270.5 95q58 0 123 -13.5t139 -41.5v61q0 97 -45 145t-137 48q-63 0 -112 -23t-85 -69l-233 49q28 112 145 173.5t301 61.5q114 0 198 -24.5t144 -75.5q65 51 138.5 75.5t162.5 24.5q230 0 365 -155t135 -422v-8h-700q6 -123 66.5 -188.5 t166.5 -65.5q74 0 127.5 33.5t85.5 101.5l229 -76q-55 -135 -180.5 -210t-294.5 -75q-119 0 -222 46t-175 133q-81 -92 -171 -135.5t-200 -43.5q-166 0 -254 83.5t-88 240.5zM367 309q0 -58 32.5 -92.5t87.5 -34.5q47 0 98 22.5t105 68.5q-1 21 -1.5 48t-0.5 91 q-57 20 -99 29.5t-75 9.5q-71 0 -109 -37t-38 -105zM967 621h387q-6 89 -57.5 140.5t-135.5 51.5t-136 -51.5t-58 -140.5z" />
<glyph unicode="&#xe7;" horiz-adv-x="1139" d="M57 504q0 234 140.5 383t359.5 149q93 0 166 -28t131 -86v90h217v-414h-229q-29 93 -91.5 143t-150.5 50q-111 0 -173 -75.5t-62 -209.5q0 -138 62.5 -212.5t178.5 -74.5q89 0 150.5 46.5t103.5 144.5l238 -121q-79 -157 -207.5 -237.5t-300.5 -80.5q-241 0 -387 145.5 t-146 387.5zM286 -309q81 -21 146 -32t110 -11q53 0 78 17.5t25 55.5t-28 54t-93 16q-23 0 -35 -0.5t-22 -1.5v211h100v-90h14q118 0 177 -48t59 -143q0 -100 -66 -150t-198 -50q-52 0 -120 11t-147 32v129z" />
<glyph unicode="&#xe8;" horiz-adv-x="1161" d="M57 504q0 241 143 386.5t380 145.5q239 0 379.5 -153.5t140.5 -417.5v-16h-729q6 -122 68.5 -187t172.5 -65q76 0 132.5 34t91.5 101l237 -76q-57 -135 -187 -210t-306 -75q-236 0 -379.5 146t-143.5 387zM293 1518h258l197 -371h-142zM373 621h403q-6 88 -61 140 t-142 52q-86 0 -140 -52t-60 -140z" />
<glyph unicode="&#xe9;" horiz-adv-x="1161" d="M57 504q0 241 143 386.5t380 145.5q239 0 379.5 -153.5t140.5 -417.5v-16h-729q6 -122 68.5 -187t172.5 -65q76 0 132.5 34t91.5 101l237 -76q-57 -135 -187 -210t-306 -75q-236 0 -379.5 146t-143.5 387zM373 621h403q-6 88 -61 140t-142 52q-86 0 -140 -52t-60 -140z M424 1147l197 371h258l-313 -371h-142z" />
<glyph unicode="&#xea;" horiz-adv-x="1161" d="M57 504q0 241 143 386.5t380 145.5q239 0 379.5 -153.5t140.5 -417.5v-16h-729q6 -122 68.5 -187t172.5 -65q76 0 132.5 34t91.5 101l237 -76q-57 -135 -187 -210t-306 -75q-236 0 -379.5 146t-143.5 387zM271 1147l196 371h238l196 -371h-141l-174 217l-176 -217h-139z M373 621h403q-6 88 -61 140t-142 52q-86 0 -140 -52t-60 -140z" />
<glyph unicode="&#xeb;" horiz-adv-x="1161" d="M57 504q0 241 143 386.5t380 145.5q239 0 379.5 -153.5t140.5 -417.5v-16h-729q6 -122 68.5 -187t172.5 -65q76 0 132.5 34t91.5 101l237 -76q-57 -135 -187 -210t-306 -75q-236 0 -379.5 146t-143.5 387zM273 1331q0 51 39.5 91t91.5 40q53 0 91 -38.5t38 -92.5 q0 -58 -36 -94.5t-93 -36.5q-56 0 -93.5 38t-37.5 93zM373 621h403q-6 88 -61 140t-142 52q-86 0 -140 -52t-60 -140zM637 1331q0 51 40 91t91 40q54 0 92.5 -38.5t38.5 -92.5q0 -58 -36.5 -94.5t-94.5 -36.5q-55 0 -93 38t-38 93z" />
<glyph unicode="&#xec;" horiz-adv-x="627" d="M8 1518h258l197 -371h-142zM33 0v223h133v572h-133v217h436v-789h143v-223h-579z" />
<glyph unicode="&#xed;" horiz-adv-x="627" d="M33 0v223h133v572h-133v217h436v-789h143v-223h-579zM139 1147l197 371h258l-313 -371h-142z" />
<glyph unicode="&#xee;" horiz-adv-x="627" d="M-14 1147l196 371h238l196 -371h-141l-174 217l-176 -217h-139zM33 0v223h133v572h-133v217h436v-789h143v-223h-579z" />
<glyph unicode="&#xef;" horiz-adv-x="627" d="M-12 1331q0 51 39.5 91t91.5 40q53 0 91 -38.5t38 -92.5q0 -58 -36 -94.5t-93 -36.5q-56 0 -93.5 38t-37.5 93zM33 0v223h133v572h-133v217h436v-789h143v-223h-579zM352 1331q0 51 40 91t91 40q54 0 92.5 -38.5t38.5 -92.5q0 -58 -36.5 -94.5t-94.5 -36.5q-55 0 -93 38 t-38 93z" />
<glyph unicode="&#xf0;" horiz-adv-x="1184" d="M57 459q0 208 135.5 343.5t342.5 135.5q29 0 66 -5t89 -15l-102 165l-330 -104l-25 82l304 98l-60 96h-149v166h295l127 -198l303 96l24 -80l-282 -92l145 -227q106 -164 145 -265.5t39 -195.5q0 -220 -146.5 -354t-387.5 -134q-242 0 -387.5 133.5t-145.5 354.5z M365 471q0 -116 61 -184t164 -68q104 0 164.5 67.5t60.5 184.5q0 115 -61 183.5t-164 68.5q-105 0 -165 -67t-60 -185z" />
<glyph unicode="&#xf1;" horiz-adv-x="1194" d="M33 0v223h133v570h-133v219h436v-101q83 53 153.5 77t143.5 24q134 0 205 -86.5t71 -249.5v-453h144v-223h-449v600q0 90 -25.5 128t-84.5 38q-40 0 -80 -17t-76 -49v-477h154v-223h-592zM265 1194q24 121 74 178.5t130 57.5q21 -1 42.5 -4.5t44.5 -10.5l92 -24 q12 -5 25.5 -7t29.5 -2q32 0 53.5 21.5t32.5 64.5h110q-26 -124 -77 -183.5t-131 -59.5q-22 0 -40 2.5t-34 7.5l-89 27q-19 5 -35 7.5t-30 2.5q-34 0 -55 -18.5t-33 -59.5h-110z" />
<glyph unicode="&#xf2;" horiz-adv-x="1184" d="M57 504q0 240 146 386t387 146t388.5 -146t147.5 -386q0 -239 -148.5 -386t-387.5 -147q-241 0 -387 145.5t-146 387.5zM299 1518h258l197 -371h-142zM365 506q0 -133 60.5 -210t164.5 -77q105 0 165 76.5t60 210.5q0 132 -60 207t-165 75q-104 0 -164.5 -75t-60.5 -207z " />
<glyph unicode="&#xf3;" horiz-adv-x="1184" d="M57 504q0 240 146 386t387 146t388.5 -146t147.5 -386q0 -239 -148.5 -386t-387.5 -147q-241 0 -387 145.5t-146 387.5zM365 506q0 -133 60.5 -210t164.5 -77q105 0 165 76.5t60 210.5q0 132 -60 207t-165 75q-104 0 -164.5 -75t-60.5 -207zM430 1147l197 371h258 l-313 -371h-142z" />
<glyph unicode="&#xf4;" horiz-adv-x="1184" d="M57 504q0 240 146 386t387 146t388.5 -146t147.5 -386q0 -239 -148.5 -386t-387.5 -147q-241 0 -387 145.5t-146 387.5zM277 1147l196 371h238l196 -371h-141l-174 217l-176 -217h-139zM365 506q0 -133 60.5 -210t164.5 -77q105 0 165 76.5t60 210.5q0 132 -60 207 t-165 75q-104 0 -164.5 -75t-60.5 -207z" />
<glyph unicode="&#xf5;" horiz-adv-x="1184" d="M57 504q0 240 146 386t387 146t388.5 -146t147.5 -386q0 -239 -148.5 -386t-387.5 -147q-241 0 -387 145.5t-146 387.5zM275 1194q24 121 74 178.5t130 57.5q21 -1 42.5 -4.5t44.5 -10.5l92 -24q12 -5 25.5 -7t29.5 -2q32 0 53.5 21.5t32.5 64.5h110q-26 -124 -77 -183.5 t-131 -59.5q-22 0 -40 2.5t-34 7.5l-89 27q-19 5 -35 7.5t-30 2.5q-34 0 -55 -18.5t-33 -59.5h-110zM365 506q0 -133 60.5 -210t164.5 -77q105 0 165 76.5t60 210.5q0 132 -60 207t-165 75q-104 0 -164.5 -75t-60.5 -207z" />
<glyph unicode="&#xf6;" horiz-adv-x="1184" d="M57 504q0 240 146 386t387 146t388.5 -146t147.5 -386q0 -239 -148.5 -386t-387.5 -147q-241 0 -387 145.5t-146 387.5zM279 1331q0 51 39.5 91t91.5 40q53 0 91 -38.5t38 -92.5q0 -58 -36 -94.5t-93 -36.5q-56 0 -93.5 38t-37.5 93zM365 506q0 -133 60.5 -210t164.5 -77 q105 0 165 76.5t60 210.5q0 132 -60 207t-165 75q-104 0 -164.5 -75t-60.5 -207zM643 1331q0 51 40 91t91 40q54 0 92.5 -38.5t38.5 -92.5q0 -58 -36.5 -94.5t-94.5 -36.5q-55 0 -93 38t-38 93z" />
<glyph unicode="&#xf7;" horiz-adv-x="1706" d="M254 512v199h1198v-199h-1198zM702 217q0 63 44.5 107.5t107.5 44.5q62 0 107 -45t45 -107q0 -61 -45 -105t-107 -44q-63 0 -107.5 43t-44.5 106zM702 1004q0 63 44.5 107t107.5 44q62 0 107 -44.5t45 -106.5q0 -63 -44.5 -107.5t-107.5 -44.5t-107.5 44.5t-44.5 107.5z " />
<glyph unicode="&#xf8;" horiz-adv-x="1184" d="M10 57l135 129q-43 66 -65.5 146t-22.5 172q0 240 146 386t387 146q98 0 178 -25t150 -77l139 135l114 -119l-135 -131q45 -65 67.5 -144t22.5 -171q0 -239 -148.5 -386t-387.5 -147q-99 0 -178.5 24.5t-147.5 76.5l-137 -133zM358 504q0 -30 4 -59.5t13 -63.5l366 354 q-34 31 -71.5 46.5t-79.5 15.5q-107 0 -169.5 -78.5t-62.5 -214.5zM440 272q33 -30 70 -44.5t80 -14.5q108 0 171.5 79.5t63.5 215.5q0 32 -4.5 62t-14.5 58z" />
<glyph unicode="&#xf9;" horiz-adv-x="1186" d="M10 788v224h449v-602q0 -115 23.5 -154t84.5 -39q38 0 78.5 17.5t77.5 50.5v503h-154v224h459v-795h133v-217h-436v72q-83 -53 -153.5 -77t-143.5 -24q-134 0 -205 87t-71 251v479h-142zM274 1518h258l197 -371h-142z" />
<glyph unicode="&#xfa;" horiz-adv-x="1186" d="M10 788v224h449v-602q0 -115 23.5 -154t84.5 -39q38 0 78.5 17.5t77.5 50.5v503h-154v224h459v-795h133v-217h-436v72q-83 -53 -153.5 -77t-143.5 -24q-134 0 -205 87t-71 251v479h-142zM405 1147l197 371h258l-313 -371h-142z" />
<glyph unicode="&#xfb;" horiz-adv-x="1186" d="M10 788v224h449v-602q0 -115 23.5 -154t84.5 -39q38 0 78.5 17.5t77.5 50.5v503h-154v224h459v-795h133v-217h-436v72q-83 -53 -153.5 -77t-143.5 -24q-134 0 -205 87t-71 251v479h-142zM252 1147l196 371h238l196 -371h-141l-174 217l-176 -217h-139z" />
<glyph unicode="&#xfc;" horiz-adv-x="1186" d="M10 788v224h449v-602q0 -115 23.5 -154t84.5 -39q38 0 78.5 17.5t77.5 50.5v503h-154v224h459v-795h133v-217h-436v72q-83 -53 -153.5 -77t-143.5 -24q-134 0 -205 87t-71 251v479h-142zM254 1331q0 51 39.5 91t91.5 40q53 0 91 -38.5t38 -92.5q0 -58 -36 -94.5 t-93 -36.5q-56 0 -93.5 38t-37.5 93zM618 1331q0 51 40 91t91 40q54 0 92.5 -38.5t38.5 -92.5q0 -58 -36.5 -94.5t-94.5 -36.5q-55 0 -93 38t-38 93z" />
<glyph unicode="&#xfd;" horiz-adv-x="1104" d="M-29 795v217h553v-217h-114l186 -449l164 449h-107v217h475v-217h-135l-440 -1127h-358v217h213l45 111l-349 799h-133zM391 1147l197 371h258l-313 -371h-142z" />
<glyph unicode="&#xfe;" horiz-adv-x="1262" d="M23 -109h133v1313h-133v217h436v-555q65 73 141.5 109.5t165.5 36.5q190 0 313 -150.5t123 -386.5q0 -226 -117.5 -365t-308.5 -139q-98 0 -177 40.5t-140 121.5v-242h147v-223h-583v223zM457 496q0 -138 57.5 -216.5t157.5 -78.5q101 0 159 78.5t58 216.5 q0 137 -58 214.5t-159 77.5q-100 0 -157.5 -77.5t-57.5 -214.5z" />
<glyph unicode="&#xff;" horiz-adv-x="1104" d="M-29 795v217h553v-217h-114l186 -449l164 449h-107v217h475v-217h-135l-440 -1127h-358v217h213l45 111l-349 799h-133zM240 1331q0 51 39.5 91t91.5 40q53 0 91 -38.5t38 -92.5q0 -58 -36 -94.5t-93 -36.5q-56 0 -93.5 38t-37.5 93zM604 1331q0 51 40 91t91 40 q54 0 92.5 -38.5t38.5 -92.5q0 -58 -36.5 -94.5t-94.5 -36.5q-55 0 -93 38t-38 93z" />
<glyph unicode="&#x131;" horiz-adv-x="627" d="M33 0v223h133v572h-133v217h436v-789h143v-223h-579z" />
<glyph unicode="&#x152;" horiz-adv-x="2062" d="M61 702q0 221 84.5 381t249.5 254q77 44 198.5 64t319.5 20h1096v-440h-256v219h-383v-348h307v-234h-307v-387h383v234h256v-465h-1096q-191 0 -313 19t-197 61q-165 91 -253.5 252t-88.5 370zM442 717q0 -251 119.5 -368.5t374.5 -117.5h88v969h-88q-254 0 -374 -117.5 t-120 -365.5z" />
<glyph unicode="&#x153;" horiz-adv-x="1896" d="M57 504q0 240 145.5 386t383.5 146q106 0 200.5 -34.5t167.5 -100.5q69 67 160.5 101t202.5 34q238 0 377 -153.5t139 -417.5v-16h-723q6 -121 68.5 -186.5t171.5 -65.5q74 0 128.5 33.5t90.5 101.5l237 -76q-55 -134 -184 -209.5t-305 -75.5q-112 0 -203 34t-160 101 q-72 -67 -164 -101t-204 -34q-239 0 -384 146t-145 387zM362 506q0 -134 59.5 -210.5t162.5 -76.5t163 76.5t60 210.5q0 133 -59.5 207.5t-163.5 74.5t-163 -74.5t-59 -207.5zM1112 621h399q-6 89 -59.5 140.5t-140.5 51.5t-140 -51.5t-59 -140.5z" />
<glyph unicode="&#x178;" horiz-adv-x="1229" d="M-72 1200v221h650v-221h-125l188 -317l190 317h-120v221h587v-221h-159l-365 -606v-363h184v-231h-714v231h184v398l-342 571h-158zM301 1741q0 51 39.5 91t91.5 40q53 0 91 -38.5t38 -92.5q0 -58 -36 -94.5t-93 -36.5q-56 0 -93.5 38t-37.5 93zM665 1741q0 51 40 91 t91 40q54 0 92.5 -38.5t38.5 -92.5q0 -58 -36.5 -94.5t-94.5 -36.5q-55 0 -93 38t-38 93z" />
<glyph unicode="&#x2c6;" horiz-adv-x="1024" d="M197 1147l196 371h238l196 -371h-141l-174 217l-176 -217h-139z" />
<glyph unicode="&#x2dc;" horiz-adv-x="1024" d="M195 1194q24 121 74 178.5t130 57.5q21 -1 42.5 -4.5t44.5 -10.5l92 -24q12 -5 25.5 -7t29.5 -2q32 0 53.5 21.5t32.5 64.5h110q-26 -124 -77 -183.5t-131 -59.5q-22 0 -40 2.5t-34 7.5l-89 27q-19 5 -35 7.5t-30 2.5q-34 0 -55 -18.5t-33 -59.5h-110z" />
<glyph unicode="&#x2000;" horiz-adv-x="986" />
<glyph unicode="&#x2001;" horiz-adv-x="1972" />
<glyph unicode="&#x2002;" horiz-adv-x="986" />
<glyph unicode="&#x2003;" horiz-adv-x="1972" />
<glyph unicode="&#x2004;" horiz-adv-x="657" />
<glyph unicode="&#x2005;" horiz-adv-x="493" />
<glyph unicode="&#x2006;" horiz-adv-x="328" />
<glyph unicode="&#x2007;" horiz-adv-x="328" />
<glyph unicode="&#x2008;" horiz-adv-x="246" />
<glyph unicode="&#x2009;" horiz-adv-x="394" />
<glyph unicode="&#x200a;" horiz-adv-x="109" />
<glyph unicode="&#x2010;" horiz-adv-x="682" d="M76 383v264h530v-264h-530z" />
<glyph unicode="&#x2011;" horiz-adv-x="682" d="M76 383v264h530v-264h-530z" />
<glyph unicode="&#x2012;" horiz-adv-x="682" d="M76 383v264h530v-264h-530z" />
<glyph unicode="&#x2013;" horiz-adv-x="1024" d="M0 401v228h1024v-228h-1024z" />
<glyph unicode="&#x2014;" horiz-adv-x="2048" d="M0 401v228h2048v-228h-2048z" />
<glyph unicode="&#x2018;" horiz-adv-x="532" d="M106 774v299q0 191 76.5 279t245.5 94v-154q-77 -12 -112 -50.5t-35 -111.5v-24h139v-332h-314z" />
<glyph unicode="&#x2019;" horiz-adv-x="532" d="M111 752v153q78 12 112.5 50t34.5 110v25h-139v331h313v-297q0 -190 -76 -278t-245 -94z" />
<glyph unicode="&#x201a;" horiz-adv-x="532" d="M96 -186q79 12 114.5 50.5t35.5 110.5v25h-140v332h314v-297q0 -191 -77 -280t-247 -95v154z" />
<glyph unicode="&#x201c;" horiz-adv-x="989" d="M115 774v299q0 191 76 279t245 94v-154q-77 -12 -112 -50.5t-35 -111.5v-24h137v-332h-311zM555 774v299q0 191 76 279t246 94v-154q-78 -12 -113 -50.5t-35 -111.5v-24h139v-332h-313z" />
<glyph unicode="&#x201d;" horiz-adv-x="989" d="M117 752v153q78 12 112.5 50t34.5 110v25h-137v331h313v-297q0 -190 -77 -278t-246 -94zM557 905q79 13 114.5 50.5t35.5 109.5v25h-140v331h314v-297q0 -190 -77 -278t-247 -94v153z" />
<glyph unicode="&#x201e;" horiz-adv-x="989" d="M104 -186q78 12 113 50t35 111v25h-137v332h311v-297q0 -192 -76.5 -280.5t-245.5 -94.5v154zM545 -340v154q77 12 112 50t35 111v25h-137v332h313v-297q0 -191 -77 -280t-246 -95z" />
<glyph unicode="&#x2022;" horiz-adv-x="1208" d="M307 762q0 123 87 209t210 86q122 0 208.5 -86.5t86.5 -208.5t-87.5 -209.5t-209.5 -87.5q-123 0 -209 87t-86 210z" />
<glyph unicode="&#x2026;" horiz-adv-x="2048" d="M187 0v332h311v-332h-311zM869 0v332h311v-332h-311zM1553 0v332h311v-332h-311z" />
<glyph unicode="&#x202f;" horiz-adv-x="394" />
<glyph unicode="&#x2039;" horiz-adv-x="588" d="M57 506l260 311h213l-258 -311l258 -313h-213z" />
<glyph unicode="&#x203a;" horiz-adv-x="588" d="M51 193l260 313l-260 311h215l260 -311l-260 -313h-215z" />
<glyph unicode="&#x205f;" horiz-adv-x="493" />
<glyph unicode="&#x2122;" horiz-adv-x="1706" d="M207 1350v112h485v-112h-168v-435h-149v435h-168zM803 915v547h196l127 -332l123 332h197v-547h-135v410l-154 -410h-61l-158 410v-410h-135z" />
<glyph unicode="&#xe000;" horiz-adv-x="1010" d="M0 1010h1010v-1010h-1010v1010z" />
<glyph unicode="&#xf001;" horiz-adv-x="1233" d="M33 223h133v572h-133v217h133v84q0 169 124 259.5t355 90.5q162 0 266.5 -50t153.5 -151l-264 -108q-32 55 -74 81.5t-96 26.5q-82 0 -123 -48t-41 -144q0 -16 0.5 -25t1.5 -16h606v-789h144v-223h-560v223h113v572h-303v-572h125v-223h-561v223z" />
<glyph unicode="&#xfb01;" horiz-adv-x="1233" d="M33 223h133v572h-133v217h133v84q0 169 124 259.5t355 90.5q162 0 266.5 -50t153.5 -151l-264 -108q-32 55 -74 81.5t-96 26.5q-82 0 -123 -48t-41 -144q0 -16 0.5 -25t1.5 -16h606v-789h144v-223h-560v223h113v572h-303v-572h125v-223h-561v223z" />
<glyph unicode="&#xf002;" horiz-adv-x="1233" d="M33 0v223h133v572h-133v217h133v84q0 161 117.5 255.5t318.5 94.5q33 0 75.5 -3.5t94.5 -10.5h303v-1209h144v-223h-560v223h113v1004q-40 14 -70.5 20t-56.5 6q-87 0 -132.5 -51.5t-45.5 -150.5q0 -16 0.5 -24.5t1.5 -14.5h137v-217h-137v-572h125v-223h-561z" />
<glyph unicode="&#xfb02;" horiz-adv-x="1233" d="M33 0v223h133v572h-133v217h133v84q0 161 117.5 255.5t318.5 94.5q33 0 75.5 -3.5t94.5 -10.5h303v-1209h144v-223h-560v223h113v1004q-40 14 -70.5 20t-56.5 6q-87 0 -132.5 -51.5t-45.5 -150.5q0 -16 0.5 -24.5t1.5 -14.5h137v-217h-137v-572h125v-223h-561z" />
<glyph unicode="&#xfb03;" horiz-adv-x="1913" d="M25 0v223h131v572h-131v217h131v110q0 151 98 237.5t268 86.5q124 0 203.5 -50t116.5 -151l-254 -92q-13 44 -31 65t-43 21t-39 -24.5t-14 -69.5v-133h160v-217h-160v-572h160v-223h-596zM668 0v223h131v572h-131v217h131v110q0 151 98 237.5t268 86.5q124 0 203.5 -50 t116.5 -151l-254 -92q-13 44 -31 65t-43 21t-39 -24.5t-14 -69.5v-133h160v-217h-160v-572h160v-223h-596zM1319 0v223h133v572h-133v217h436v-789h143v-223h-579zM1423 1278q0 70 48.5 119t117.5 49q70 0 120 -49.5t50 -118.5q0 -68 -50 -117t-120 -49t-118 48t-48 118z " />
<glyph unicode="&#xfb04;" horiz-adv-x="1902" d="M25 0v223h131v572h-131v217h131v110q0 151 98 237.5t268 86.5q124 0 203.5 -50t116.5 -151l-254 -92q-13 44 -31 65t-43 21t-39 -24.5t-14 -69.5v-133h160v-217h-160v-572h160v-223h-596zM668 0v223h131v572h-131v217h131v110q0 151 98 237.5t268 86.5q124 0 203.5 -50 t116.5 -151l-254 -92q-13 44 -31 65t-43 21t-39 -24.5t-14 -69.5v-133h160v-217h-160v-572h160v-223h-596zM1311 0v223h131v981h-131v217h436v-1198h141v-223h-577z" />
</font>
</defs>
</svg>
