<?xml version="1.0" standalone="no"?>
<!DOCTYPE svg PUBLIC "-//W3C//DTD SVG 1.1//EN" "http://www.w3.org/Graphics/SVG/1.1/DTD/svg11.dtd" >
<svg xmlns="http://www.w3.org/2000/svg">
<metadata>
This is a custom SVG webfont generated by Font Squirrel.
Copyright   : Copyright  1992 2001 Adobe Systems Incorporated  All Rights Reserved
Designer    : Chauncey H Griffith
Foundry URL : httpwwwadobecomtype
</metadata>
<defs>
<font id="BellGothicStdBold" horiz-adv-x="1024" >
<font-face units-per-em="2048" ascent="1532" descent="-516" />
<missing-glyph horiz-adv-x="563" />
<glyph unicode=" "  horiz-adv-x="563" />
<glyph unicode="&#x09;" horiz-adv-x="563" />
<glyph unicode="&#xa0;" horiz-adv-x="563" />
<glyph unicode="!" horiz-adv-x="796" d="M258 129q0 59 42 100t99 41q55 0 98.5 -42t43.5 -99q0 -55 -40 -97t-100 -42q-66 0 -104.5 41t-38.5 98zM289 1511h213l-2 -125l-39 -878h-131l-39 878z" />
<glyph unicode="&#x22;" horiz-adv-x="681" d="M113 948v555h163v-555h-163zM403 948v555h168v-555h-168z" />
<glyph unicode="#" horiz-adv-x="1228" d="M111 569h223l41 295h-203l-2 131h223l60 439h149l-61 -439h243l60 439h149l-61 -439h184l2 -131h-205l-41 -295h185l2 -131h-205l-61 -438h-148l62 438h-244l-62 -438h-147l61 438h-202zM481 569h244l41 295h-244z" />
<glyph unicode="$" horiz-adv-x="1138" d="M74 186l94 166q72 -63 113 -94t108.5 -61.5t132.5 -32.5v547q-193 76 -276 145q-63 53 -102.5 128t-39.5 149q0 176 121 278q102 88 299 98v174h111v-174q150 -16 251 -64t138 -87l-115 -158q-51 53 -104 87t-86 44t-84 21v-473q152 -66 207 -97.5t112 -93.5 q98 -104 99 -264q0 -172 -107 -285q-115 -123 -311 -129v-274h-111v268q-143 12 -233 45t-217 137zM283 1171q0 -94 68.5 -158.5t170.5 -90.5v434q-100 0 -169.5 -44.5t-69.5 -140.5zM635 162q104 4 175 70.5t71 164.5q0 125 -95 191q-80 57 -151 76v-502z" />
<glyph unicode="%" horiz-adv-x="2048" d="M115 1128q0 154 108.5 264.5t284.5 110.5q135 0 248.5 -104.5t113.5 -257.5q0 -160 -110.5 -271.5t-266 -111.5t-267 106t-111.5 264zM276 1130.5q0 -94.5 62.5 -152.5t150.5 -58q90 0 153 62t63 153q0 80 -61.5 144t-154.5 64q-88 0 -150.5 -59t-62.5 -153.5zM465 -41 l981 1575h133l-981 -1575h-133zM1180 369q0 160 112.5 267t268.5 107q147 0 259.5 -109.5t112.5 -260.5q0 -156 -108.5 -265.5t-264 -109.5t-268 106.5t-112.5 264.5zM1341 377q0 -98 66 -160.5t154 -62.5q90 0 151.5 66.5t61.5 152.5q0 90 -64.5 150.5t-148.5 60.5 q-92 0 -156 -60.5t-64 -146.5z" />
<glyph unicode="&#x26;" horiz-adv-x="1478" d="M111 416q0 287 329 477q-88 186 -88 321q0 127 86 213q94 96 252 97q121 0 215 -78t94 -209q0 -74 -29.5 -134.5t-88 -106.5t-98.5 -70.5t-105 -57.5q137 -236 307 -444q92 123 170 319l197 -67q-37 -82 -81 -153.5t-74 -111.5l-95 -124q43 -47 65.5 -69.5t57.5 -40 t75.5 -17.5t98.5 30v-192q-66 -35 -123 -35q-70 0 -133.5 31t-96 62.5t-77.5 82.5q-84 -70 -126 -99.5t-117 -57t-161 -27.5q-219 0 -336.5 143.5t-117.5 317.5zM291 467q0 -123 83 -223.5t232 -100.5q127 0 252 125q-188 231 -356 512q-45 -31 -72 -52t-64.5 -61t-56 -90.5 t-18.5 -109.5zM514 1235q0 -92 105 -258q61 29 95 49.5t73.5 53t57 72.5t17.5 93q0 82 -52 126t-118 44q-90 0 -134 -52t-44 -128z" />
<glyph unicode="'" horiz-adv-x="454" d="M143 948v555h168v-555h-168z" />
<glyph unicode="(" horiz-adv-x="796" d="M160 715q0 217 63.5 400t229.5 417h192q-59 -63 -123.5 -174t-95.5 -174q-98 -215 -98 -436q0 -123 28.5 -240t85 -222.5t98.5 -170t107 -152.5h-190q-174 231 -240 434q-57 164 -57 318z" />
<glyph unicode=")" horiz-adv-x="796" d="M150 1532h186q76 -111 113.5 -174.5t88 -168t73 -213t22.5 -235.5q0 -375 -258 -729q-25 -33 -35 -49h-186q55 74 75 107q14 20 58.5 96t46.5 78q131 244 131 495q0 57 -4 101.5t-21.5 130.5t-66.5 192.5t-125 222.5q-35 56 -98 146z" />
<glyph unicode="*" horiz-adv-x="1138" d="M178 1180l45 172l312 -148l-50 322h172l-45 -322l306 142l43 -166l-334 -37l243 -258l-147 -103l-152 312l-157 -312l-146 103l244 248z" />
<glyph unicode="+" horiz-adv-x="1228" d="M98 434v168h432v434h168v-434h432v-168h-432v-434h-168v434h-432z" />
<glyph unicode="," horiz-adv-x="569" d="M0 -373l246 643h166l-23 -65l-217 -578h-172z" />
<glyph unicode="-" horiz-adv-x="681" d="M76 442v172h530v-172h-530z" />
<glyph unicode="." horiz-adv-x="569" d="M150 120.5q0 59.5 41.5 99.5t99.5 40q61 0 103 -42t42 -99q0 -47 -38 -90t-107 -43q-59 0 -100 37.5t-41 97z" />
<glyph unicode="/" horiz-adv-x="569" d="M-45 -45l485 1571h174l-487 -1571h-172z" />
<glyph unicode="0" horiz-adv-x="1138" d="M84 721q0 424 139 620.5t367 196.5q174 0 291 -123q98 -109 136 -255t38 -369q0 -393 -123 -611q-117 -207 -367 -207q-51 0 -103 11.5t-129 62.5t-128 139q-121 207 -121 535zM285 725q0 -240 61 -403q68 -174 238 -175q270 0 270 639q0 319 -65.5 449.5t-206.5 130.5 q-100 0 -169 -76t-94 -205q-34 -176 -34 -360z" />
<glyph unicode="1" horiz-adv-x="1138" d="M129 1333v170h559v-1337h293v-166h-829v166h327v1167h-350z" />
<glyph unicode="2" horiz-adv-x="1138" d="M76 1200q45 96 94 155.5t131 106.5q119 68 258 68q45 0 97.5 -9.5t119 -38t119.5 -72.5t89 -124t36 -182q0 -133 -72 -240q-80 -121 -293 -282l-168 -127q-92 -70 -133 -152q-27 -43 -37 -119h707v-184h-934q4 172 56.5 298t134 211t237.5 204q74 55 111 85.5t89 85 t75.5 109t23.5 115.5q0 94 -60.5 170t-187.5 76q-236 0 -333 -254z" />
<glyph unicode="3" horiz-adv-x="1138" d="M47 -51v174q39 -2 100 -2q326 0 508 121q172 111 172 278q0 106 -66.5 160.5t-176.5 54.5q-39 0 -73 -7t-59.5 -15t-99.5 -37l-55 139q162 68 236.5 108t148.5 111q74 61 74 152q0 78 -59.5 122t-143.5 44q-72 0 -141.5 -32t-111.5 -66.5t-122 -108.5l-108 141 q43 43 75.5 70.5t98 70.5t150.5 66t181 23q164 0 270.5 -80t106.5 -234q0 -207 -295 -342q186 -10 279 -102q96 -96 96 -244q0 -115 -66.5 -229.5t-203.5 -196.5q-113 -68 -262.5 -100.5t-234.5 -36.5q-57 -3 -134 -3q-40 0 -84 1z" />
<glyph unicode="4" horiz-adv-x="1138" d="M61 418v227l484 858h332v-911h165v-174h-165v-418h-197v418h-619zM213 588h465v807h-19l-446 -793q-2 -4 -2 -7.5t2 -6.5z" />
<glyph unicode="5" horiz-adv-x="1138" d="M66 -8l28 192q135 -51 266 -51q154 0 275 66q76 41 130 124t54 191q0 88 -27.5 152.5t-73.5 97.5t-95.5 48t-104.5 15q-57 0 -104 -17t-69.5 -35.5t-59.5 -53.5h-148q0 31 2 47l76 735h719v-184h-572l-36 -371q100 45 202 45q246 0 392 -166q104 -119 104 -313 q0 -74 -19.5 -146.5t-68.5 -148.5t-123 -133t-193.5 -94t-269.5 -37q-102 0 -284 37z" />
<glyph unicode="6" horiz-adv-x="1138" d="M61 498q0 299 115 573q96 225 266 455h271q-201 -225 -281 -359q-125 -211 -137 -358q127 100 285 100q225 0 348 -135t123 -323q0 -94 -27 -178.5t-83 -158t-158.5 -116.5t-237.5 -43q-205 0 -344.5 138.5t-139.5 404.5zM274 432q0 -145 79 -230t204 -85t206 81t81 230 q0 119 -73 217t-212 98q-109 0 -197 -79.5t-88 -231.5z" />
<glyph unicode="7" horiz-adv-x="1138" d="M72 1503h962q0 -14 -4 -39q-4 -12 -19.5 -40.5t-17.5 -34.5q-49 -102 -69 -150l-152 -362q-53 -129 -140 -413t-126 -464h-240q129 428 252 737q106 266 252 576h-698v190z" />
<glyph unicode="8" horiz-adv-x="1138" d="M78 397q0 174 74 275q70 96 200 139v8q-31 8 -65.5 27.5t-77.5 57.5t-70.5 103.5t-27.5 147.5q0 166 120.5 273.5t315.5 107.5q244 0 360.5 -115.5t116.5 -273.5q0 -129 -84 -223q-31 -35 -57.5 -52.5t-98.5 -52.5v-8q276 -106 277 -410q0 -193 -132 -314.5t-384 -121.5 q-201 0 -328 113q-76 66 -107.5 155.5t-31.5 163.5zM285 416q0 -43 14 -90t45 -94.5t89.5 -77t135.5 -29.5q113 0 200 77t87 240q0 39 -12.5 84t-42 96.5t-91 85t-145.5 33.5q-61 0 -127.5 -28.5t-103.5 -89.5q-49 -82 -49 -207zM307 1130q0 -102 75 -173.5t181 -71.5 q117 0 188.5 75.5t71.5 169.5q0 98 -74.5 174t-185.5 76q-104 0 -180 -72t-76 -178z" />
<glyph unicode="9" horiz-adv-x="1138" d="M63 1059q0 188 125 334.5t371 146.5q221 0 354 -143q139 -147 140 -402q0 -305 -115 -573q-92 -219 -266 -453h-271q193 213 279 357q127 211 139 358q-129 -100 -284 -100q-225 0 -348.5 142.5t-123.5 332.5zM270 1065q0 -133 78 -224t203 -91q49 0 97 16t92 51t72 97.5 t28 146.5q0 141 -80 228t-205 87q-129 0 -213 -90q-72 -78 -72 -221z" />
<glyph unicode=":" horiz-adv-x="681" d="M182 958q0 61 48.5 99.5t101.5 38.5t96 -39t43 -96.5t-41 -100.5t-90 -43q-78 0 -118 44t-40 97zM190 123q0 66 44.5 104.5t95.5 38.5q55 0 98 -42t43 -103q0 -49 -38 -92t-103 -43q-57 0 -98.5 38t-41.5 99z" />
<glyph unicode=";" horiz-adv-x="681" d="M18 -377l248 643h172l-245 -643h-175zM205 963q0 66 44 103.5t97 37.5q59 0 100 -41t41 -94q0 -57 -38.5 -101.5t-104.5 -44.5q-59 0 -99 40.5t-40 99.5z" />
<glyph unicode="&#x3c;" horiz-adv-x="1228" d="M94 444v148l1041 461v-168l-828 -367l828 -366v-168z" />
<glyph unicode="=" horiz-adv-x="1228" d="M98 221v168h1032v-168h-1032zM98 647v168h1032v-168h-1032z" />
<glyph unicode="&#x3e;" horiz-adv-x="1228" d="M94 -16v168l828 366l-828 367v168l1041 -461v-148z" />
<glyph unicode="?" d="M100 1276q68 154 203 221q82 41 199 41q45 0 99 -13.5t117.5 -45t105.5 -101t42 -168.5q0 -57 -19.5 -108t-36.5 -74.5t-58 -75.5q-145 -170 -162 -202q-33 -72 -33 -216v-32h-172q-1 23 -1 45q0 147 36 240q41 108 135 217q70 80 91.5 117.5t21.5 99.5q0 72 -48.5 120 t-125.5 48q-51 0 -89 -18.5t-60.5 -52.5t-33 -56.5t-20.5 -55.5zM326 121q0 74 48 109.5t97 35.5q57 0 100 -43t43 -100q0 -53 -38.5 -95t-102.5 -42q-61 0 -104 40t-43 95z" />
<glyph unicode="@" horiz-adv-x="1638" d="M104 719q0 309 220.5 524t525.5 215q279 0 481.5 -168t202.5 -415q0 -129 -48 -239t-122 -176.5t-155 -104.5t-150 -38q-53 0 -89 31t-38 88h-4q-111 -119 -242 -119q-117 0 -195.5 88.5t-78.5 210.5q0 201 121.5 359t316.5 158q154 0 229 -148l33 107h139l-135 -496 q-13 -53 -13 -86q0 -57 38 -57q96 0 177 117.5t81 250.5q0 231 -158 369.5t-391 138.5q-258 0 -428 -179t-170 -439t177 -433.5t437 -173.5q133 0 256 56.5t207 152.5l82 -82q-94 -115 -237.5 -185.5t-311.5 -70.5q-317 0 -537.5 214.5t-220.5 529.5zM575 653 q0 -84 45.5 -136t118.5 -52q113 0 196 113.5t83 222.5q0 74 -48 131t-112 57q-117 0 -200 -112.5t-83 -223.5z" />
<glyph unicode="A" horiz-adv-x="1366" d="M70 0l485 1503h236l507 -1503h-219l-102 313h-594l-94 -313h-219zM436 487h482l-238 766q-4 8 -10 8.5t-11 -10.5z" />
<glyph unicode="B" horiz-adv-x="1366" d="M223 0v1503h428q236 0 348 -69q78 -49 111 -124t33 -134q0 -72 -17.5 -127.5t-51.5 -90t-56.5 -51t-54.5 -35.5q-41 -25 -84 -28q-33 -2 -33 -25q0 -18 53 -35l66 -20q111 -35 187.5 -135.5t76.5 -231.5q0 -207 -148 -309q-125 -88 -409 -88h-449zM418 729v-553h291 q301 0 301 254q0 242 -248 287h-8q-8 2 -22.5 3t-34 3t-49.5 4t-62.5 3t-76.5 1t-91 -2zM418 887h215q158 0 223 59q80 74 80 184q0 51 -16.5 89t-49 61t-64.5 37t-83 19t-81 6t-81 1h-143v-456z" />
<glyph unicode="C" horiz-adv-x="1251" d="M129 737q0 115 12.5 216.5t47 209t89 184t147.5 126t216 49.5q193 0 313 -123q106 -109 133 -295l-196 -37q-14 121 -74.5 198.5t-175.5 77.5q-166 0 -246 -196q-25 -61 -40 -151.5t-18 -138.5t-3 -71q0 -651 307 -651q125 0 199 115q43 72 53 205l205 -37 q-14 -211 -142 -338q-129 -129 -333 -129q-49 0 -100.5 11t-126 58.5t-130 126t-96.5 232t-41 358.5z" />
<glyph unicode="D" horiz-adv-x="1366" d="M213 0v1503h326q698 0 698 -772q0 -258 -107 -444q-31 -55 -66.5 -96t-101 -89.5t-173 -75t-248.5 -26.5h-328zM422 190h156q440 0 440 564q0 287 -119 430q-59 72 -146 100.5t-231 28.5h-100v-1123z" />
<glyph unicode="E" horiz-adv-x="1366" d="M246 0v1503h934v-184h-719v-436h530v-191h-526v-502h754v-190h-973z" />
<glyph unicode="F" horiz-adv-x="1251" d="M217 0v1503h926v-190h-711v-455h512v-190h-512v-668h-215z" />
<glyph unicode="G" horiz-adv-x="1366" d="M131 735q0 354 121 553q55 94 137 152.5t142.5 75t115.5 16.5q182 0 301 -104.5t152 -258.5l-195 -41q-12 39 -25.5 66t-41 70t-73.5 66.5t-106 23.5q-29 0 -58.5 -8.5t-72.5 -32t-83 -81.5t-64 -145q-39 -131 -39 -339q0 -276 80 -443q80 -164 242 -164q127 0 206 88 q37 43 57.5 92.5t24.5 83t6 97.5h-290v190h489v-723h-74l-47 94q-25 53 -45 54q-12 0 -26 -11q-23 -23 -33 -30q-145 -123 -301 -123q-199 0 -326 158q-94 115 -134 288.5t-40 335.5z" />
<glyph unicode="H" horiz-adv-x="1478" d="M262 0v1503h209v-631h537v631h209v-1503h-209v692h-537v-692h-209z" />
<glyph unicode="I" horiz-adv-x="796" d="M162 0v133h127v1233h-127v137h473v-137h-133v-1233h133v-133h-473z" />
<glyph unicode="J" d="M12 375l213 82v-24q0 -132 42 -207q46 -81 161 -81q190 0 190 304v1054h216v-989q0 -121 -17.5 -214t-62.5 -175t-131 -126t-213 -44q-150 0 -258 100q-51 47 -82 106.5t-39.5 101.5t-18.5 112z" />
<glyph unicode="K" horiz-adv-x="1366" d="M231 0v1503h205v-1503h-205zM492 803l598 700h235v-30l-586 -662l596 -791v-20h-254z" />
<glyph unicode="L" horiz-adv-x="1251" d="M246 0v1503h207v-1313h694v-190h-901z" />
<glyph unicode="M" horiz-adv-x="1820" d="M258 0v1503h313l320 -1167q6 -18 18 -19q20 0 25 21l311 1165h318v-1503h-170v1356q0 18 -14.5 18t-20.5 -14l-361 -1360h-172l-364 1372q-4 12 -15 12q-18 0 -18 -20v-1364h-170z" />
<glyph unicode="N" horiz-adv-x="1478" d="M238 1503h266l436 -966q0 -2 29.5 -75t31.5 -75q35 -92 62 -170q2 0 6 -1t6 -1q8 8 8 31q0 12 -4 73.5t-4 71.5q-4 94 -4 223v889h172v-1503h-262l-438 977q-72 162 -121 319q0 2 -4 2t-6 2q-12 -10 -13 -22q0 -25 7 -152l4 -127v-999h-172v1503z" />
<glyph unicode="O" horiz-adv-x="1251" d="M119 727q0 379 123 576q139 223 385 223q174 0 284.5 -103.5t163.5 -261.5q57 -170 58 -413q0 -147 -24 -277.5t-77 -251.5t-156.5 -192.5t-248.5 -71.5q-133 0 -233.5 63.5t-159 173t-87 244.5t-28.5 291zM334 733q0 -92 9 -176t36 -187.5t89 -166t155 -62.5 q156 0 225.5 151.5t69.5 448.5q0 604 -287 605q-182 0 -252 -232q-45 -141 -45 -381z" />
<glyph unicode="P" horiz-adv-x="1366" d="M252 0v1503h326q315 0 460 -104q184 -129 185 -355q0 -213 -154 -335q-86 -70 -189.5 -90.5t-236.5 -20.5h-182v-598h-209zM461 778q27 -2 82 -2q109 0 180.5 9.5t139 36t101 83t33.5 144.5q0 279 -407 278h-129v-549z" />
<glyph unicode="Q" horiz-adv-x="1251" d="M119 727q0 379 123 576q139 223 385 223q174 0 284.5 -103.5t163.5 -261.5q57 -170 58 -413q0 -453 -189 -660q49 -72 98 -96q45 -23 116 -23h11v-209q-55 2 -86.5 6.5t-85 25t-98.5 70.5t-84 132q-43 -20 -86 -29q-51 -10 -102 -10q-133 0 -233.5 63.5t-159 173 t-87 244.5t-28.5 291zM334 733q0 -92 9 -176t36 -187.5t90 -166t156 -62.5q51 0 94 19l-139 219l104 74l141 -199q94 141 95 487q0 604 -289 605q-182 0 -252 -232q-45 -141 -45 -381z" />
<glyph unicode="R" horiz-adv-x="1366" d="M246 0v1503h463q147 0 254.5 -41t159 -106.5t74 -130t22.5 -129.5q0 -100 -29 -174t-83 -118t-100 -66.5t-110 -43.5l393 -694h-246l-356 668h-231v-668h-211zM455 829q45 -1 85 0q181 0 255 15q211 47 211 229q0 254 -344 254h-207v-498z" />
<glyph unicode="S" horiz-adv-x="1251" d="M133 303l180 113q39 -111 124 -191t222 -80q104 0 184.5 63.5t80.5 178.5q0 145 -185 229l-266 121q-76 33 -145.5 87.5t-102.5 113.5q-45 82 -45 209q0 168 124 277.5t304 109.5q342 0 486 -320l-177 -104q-61 125 -125.5 183.5t-183.5 58.5q-84 0 -156.5 -50.5 t-72.5 -148.5q0 -139 164 -215l299 -135q156 -74 225 -197q51 -96 51 -203q0 -215 -147 -340q-57 -49 -125 -74.5t-106 -28.5t-95 -3q-80 0 -176 28.5t-168 90.5q-96 80 -168 227z" />
<glyph unicode="T" horiz-adv-x="1251" d="M82 1313v190h1089v-190h-436v-1313h-215v1313h-438z" />
<glyph unicode="U" horiz-adv-x="1478" d="M262 512v991h209v-1001q0 -356 283 -357q63 0 127.5 31t101.5 98q45 90 45 279v950h189v-1009q0 -268 -134 -404q-131 -135 -376 -135q-82 0 -180.5 38t-168.5 138q-96 141 -96 381z" />
<glyph unicode="V" horiz-adv-x="1366" d="M86 1503h219l377 -1190q4 -12 14.5 -12t16.5 12l366 1190h203l-481 -1503h-226z" />
<glyph unicode="W" horiz-adv-x="1933" d="M92 1503h201l160 -655q31 -131 77 -387l39 -209q4 -23 21 -23q14 0 24 41q14 57 64 334q10 51 57 250l158 649h172l156 -626q61 -250 122 -572q18 -74 29 -78q12 0 17 13q2 4 8 57q72 397 123 612l139 594h184l-375 -1503h-219l-143 563q-10 37 -33 142q-2 8 -11 61 t-11 63l-56 289l-7 45q-5 33 -9 49q0 10 -10 11q-12 0 -13 -11l-16 -94q-53 -322 -106 -540l-138 -578h-219z" />
<glyph unicode="X" horiz-adv-x="1366" d="M63 0l482 774l-475 729h245l256 -413q4 -8 28 -50l42 -75q18 -35 21 -35q4 -2 12 -2t35 57q41 82 84 154l217 364h225l-453 -717l521 -786h-254l-234 375l-59 100q-53 90 -60 103q-23 49 -33 49t-32 -39l-17 -29q-8 -12 -52 -93t-64 -114l-211 -352h-224z" />
<glyph unicode="Y" horiz-adv-x="1366" d="M70 1501h245l318 -614q2 -2 13 -28l22 -48l12 -23l14 -18h15l32 68l31 63l311 602h215l-495 -911v-592h-221v582z" />
<glyph unicode="Z" horiz-adv-x="1251" d="M117 0v154l594 979l63 96q2 2 17.5 22.5t21.5 30.5q8 8 12 23q-4 10 -16 12q-10 4 -51 4q-8 0 -91 -4t-118 -4h-408v190h961v-129l-453 -743q-115 -190 -221 -346q-39 -61 -43 -90l8 -11q12 -8 35 -4q12 2 44 4t36 2q102 4 149 4h480v-190h-1020z" />
<glyph unicode="[" horiz-adv-x="796" d="M119 -14v1521l592 -14v-84l-422 8v-1343l422 6v-82z" />
<glyph unicode="\" horiz-adv-x="569" d="M-45 1526h174l485 -1571h-172z" />
<glyph unicode="]" horiz-adv-x="796" d="M86 -2v82l422 -6v1343l-422 -8v84l592 14v-1521z" />
<glyph unicode="^" horiz-adv-x="1228" d="M80 504l455 930h155l459 -930h-172l-365 753l-360 -753h-172z" />
<glyph unicode="_" d="M0 -154h1024v-102h-1024v102z" />
<glyph unicode="`" horiz-adv-x="569" d="M2 1464h223l183 -288h-138z" />
<glyph unicode="a" d="M49 242q0 186 158 303q156 115 457 119v139q0 25 -3.5 42t-17.5 46t-51 44t-96 15q-129 0 -310 -112l-80 137q84 45 129.5 65.5t118 39t154.5 18.5q154 0 246 -72q98 -78 98 -246v-540q0 -39 3 -58.5t25 -40.5q20 -19 56 -18h8v-146q-80 4 -126 16.5t-83 55.5 q-45 45 -53 107l-6 4q-6 -4 -35 -33t-33 -31q-84 -74 -149.5 -95t-149.5 -21q-111 0 -185.5 78t-74.5 184zM236 279q0 -70 44 -119t115 -49q55 0 112.5 29.5t85.5 54t71 67.5v293q-182 -2 -305 -72.5t-123 -203.5z" />
<glyph unicode="b" d="M123 33v1427l180 70v-606q0 -8 8 -17l21 2q45 72 57 86q84 100 203 101q156 0 251 -148.5t95 -419.5q0 -74 -13.5 -153.5t-47 -177t-108.5 -160t-179 -62.5q-166 0 -264 211q-12 29 -25 29q-2 0 -7 -5t-5 -9l-4 -238zM299 526q0 -162 69.5 -280.5t182.5 -118.5 q70 0 116 49t62 130t20.5 126t4.5 96q0 420 -211 420q-33 0 -70 -18.5t-79 -61.5t-68.5 -132t-26.5 -210z" />
<glyph unicode="c" horiz-adv-x="909" d="M72 518q0 272 108 422q113 154 289 154q33 0 73 -6.5t101.5 -37t99.5 -81.5q43 -57 70 -117l-156 -78q-10 29 -19 48.5t-29.5 52t-55.5 51t-78 18.5q-98 0 -160.5 -96t-62.5 -258q0 -190 33 -281q63 -174 207 -174q80 0 123.5 57.5t58.5 147.5l164 -74 q-27 -133 -119 -211t-227 -78q-96 0 -172 35t-119 93.5t-72 118t-40 129t-14 103t-3 62.5z" />
<glyph unicode="d" d="M76 559q0 125 30.5 242t112.5 208t201 91q59 0 104 -20.5t67.5 -43t61.5 -71.5q2 -4 8.5 -13.5t10.5 -13.5q20 -31 24 -31q14 0 15 23v534l180 68v-1493l-158 -68l-8 236q0 14 -12 14q-8 0 -25 -35q-10 -23 -61.5 -90t-89.5 -88q-53 -29 -113 -28q-166 0 -257 157.5 t-91 421.5zM260 516q0 -51 6 -102.5t23.5 -122t64.5 -114.5t115 -44q115 0 181.5 128t66.5 280q0 176 -71 293.5t-175 117.5q-211 0 -211 -436z" />
<glyph unicode="e" d="M86 506q0 154 36 269.5t84 174t111.5 94t106.5 44t82 8.5q186 0 291.5 -137.5t109.5 -344.5l2 -98h-635v-12q0 -387 258 -387q121 0 218 90l106 -98q-47 -43 -80 -66t-105.5 -46.5t-162.5 -23.5q-188 0 -305 142.5t-117 390.5zM281 641h444q0 145 -55.5 233.5 t-159.5 88.5q-135 0 -193 -136q-30 -71 -36 -186z" />
<glyph unicode="f" horiz-adv-x="681" d="M84 862v119h149v236q0 49 3.5 77.5t21.5 73.5t55 82q76 76 211 76q98 0 158 -29v-156q-66 33 -123 33q-47 0 -76.5 -16.5t-40 -47t-13.5 -50t-3 -50.5v-225h188v-123h-188v-862h-193v862h-149z" />
<glyph unicode="g" d="M72 647q0 190 99 319.5t241 129.5q188 0 276 -168q20 -35 29 -39q18 8 18 26v160h148v-964q0 -98 -25 -181q-2 -14 -15.5 -42.5t-57.5 -77t-105 -74.5q-111 -47 -238 -47q-131 0 -252 32v187h76q18 -25 33.5 -38t52.5 -25.5t92 -12.5q96 0 170 49q88 61 88 230v155l-8 10 q-10 0 -15 -5t-20 -31q-14 -25 -37.5 -50.5t-81 -53t-124.5 -27.5q-186 0 -283 192q-61 123 -61 346zM254 573q0 -37 6 -79.5t25.5 -101t65.5 -96.5t114 -38q33 0 68.5 13.5t78.5 47t71 107.5t28 176q0 178 -69 267t-175 89q-213 0 -213 -385z" />
<glyph unicode="h" d="M137 0v1460l185 76v-631q0 -20 16 -20q8 0 51 63q100 150 270 150q213 0 213 -260v-838h-182v831q0 129 -102 130q-57 0 -119 -50q-53 -43 -147 -182v-729h-185z" />
<glyph unicode="i" horiz-adv-x="569" d="M166 1270v194h237v-194h-237zM195 0v1071h184v-1071h-184z" />
<glyph unicode="j" horiz-adv-x="569" d="M25 -113q82 -37 112 -37q88 0 88 101v1120h187v-1132q0 -104 -57.5 -179t-198.5 -75q-53 0 -131 14v188zM205 1266v194h227v-194h-227z" />
<glyph unicode="k" d="M137 0v1460l152 66h28v-1526h-180zM352 543l385 528h209l-389 -516l408 -537v-18h-215z" />
<glyph unicode="l" horiz-adv-x="569" d="M193 0v1460l157 66h27v-1526h-184z" />
<glyph unicode="m" horiz-adv-x="1593" d="M154 1038l161 62v-252l13 -14q14 4 28 20q74 92 97.5 116.5t60.5 55.5q88 68 174 68q47 0 83 -15.5t55.5 -38t33.5 -57.5t18.5 -61.5t8.5 -63.5l6 -4l2 2h4q8 4 19.5 18.5t13.5 16.5q113 119 182.5 162t149.5 43q98 0 149 -74q23 -33 31 -78t8 -164v-780h-176v762 q0 45 -2 68.5t-11.5 57.5t-33 49t-62.5 15q-55 0 -112.5 -54t-163.5 -189v-709h-176v795q0 70 -16.5 105.5t-34 42.5t-46.5 7q-59 0 -147 -84q-39 -35 -141 -174v-692h-176v1038z" />
<glyph unicode="n" d="M145 0v1030l168 68v-209q0 -20 17 -21q10 0 35 29l41 55q100 137 258 138q80 0 139 -41q78 -51 78 -232v-817h-181v813q0 141 -106 141q-88 0 -184 -114q-80 -106 -80 -115v-725h-185z" />
<glyph unicode="o" d="M88 555q0 266 117 404.5t295 138.5q244 0 356 -211q35 -68 57.5 -171.5t22.5 -185.5q0 -244 -117 -398.5t-311 -154.5q-86 0 -154.5 30t-94.5 54.5t-56 63.5q-115 143 -115 430zM268 522q0 -43 9.5 -97t32 -124t74.5 -117t126 -47q70 0 119 40t71.5 105.5t31.5 128 t9 130.5q0 150 -36 254q-35 100 -119 135q-35 14 -78 14q-72 0 -122 -41t-74.5 -109.5t-34 -134t-9.5 -137.5z" />
<glyph unicode="p" d="M125 -358v1407l162 71v-229q0 -25 14 -25q8 0 14 6l29 64q31 63 93.5 117.5t154.5 54.5q84 0 152.5 -46t107.5 -120q88 -164 88 -389q0 -270 -98.5 -418.5t-247.5 -148.5q-59 0 -125 34.5t-109 102.5q-33 51 -45 51q-10 0 -10 -29v-503h-180zM299 551q0 -217 76 -312.5 t180 -95.5q82 0 140.5 94.5t58.5 323.5q0 43 -3 85t-15.5 101.5t-34 102.5t-61.5 74.5t-95 31.5q-111 0 -178.5 -126.5t-67.5 -278.5z" />
<glyph unicode="q" d="M72 528q0 287 99 433.5t241 146.5q61 0 108 -19.5t79 -57.5t48.5 -65.5t36.5 -70.5q10 -25 25 -29l12 6q0 4 1 10.5t1 8.5v229l164 -71v-1407h-180v503q0 29 -12.5 29t-22.5 -16q-109 -172 -254.5 -172t-245.5 142t-100 400zM254 557q0 -174 41 -274q12 -31 21.5 -46.5 t29 -42t50 -40t71.5 -13.5q86 0 143.5 65.5t79 150.5t21.5 182q0 195 -75 306t-169 111q-68 0 -114 -47t-65.5 -120.5t-26.5 -128t-7 -103.5z" />
<glyph unicode="r" horiz-adv-x="796" d="M141 0v1030l172 70v-340q0 -25 11 -25h22q6 8 33 51t31 48q61 92 131.5 156.5t105.5 84t60 25.5v-303q-35 6 -68 6q-170 0 -307 -191v-612h-191z" />
<glyph unicode="s" horiz-adv-x="796" d="M59 74l72 139q76 -61 130 -85t120 -24q84 0 133 49.5t49 118.5q0 63 -40 98.5t-177 102.5q-150 74 -210 144.5t-60 175.5q0 135 93 214.5t226 79.5q152 0 287 -83l-53 -146q-51 37 -77 53.5t-70 30.5t-95 14q-80 0 -120 -42t-40 -99q0 -90 129 -153l172 -87 q199 -96 199 -280q0 -143 -99.5 -233.5t-252.5 -90.5q-158 1 -316 103z" />
<glyph unicode="t" horiz-adv-x="681" d="M25 985h153v244l172 166h21v-410h170v-117h-181v-637q0 -96 91 -96q66 0 180 60v-162q-96 -53 -209 -53q-29 0 -60.5 7t-78.5 26.5t-77 70.5t-30 125v659h-151v117z" />
<glyph unicode="u" d="M147 246v825h185v-772q0 -188 110 -188q33 0 61.5 13t64.5 53t58.5 69.5t73.5 103.5v721h179v-1036l-170 -62v199q0 27 -12.5 27t-18.5 -6q-12 -12 -41 -52.5t-45 -58.5q-100 -106 -230 -107q-96 0 -155.5 66t-59.5 205z" />
<glyph unicode="v" horiz-adv-x="909" d="M59 1071h193l162 -696q2 -8 8 -39t8 -45q0 -4 4 -32t8 -38q8 -14 15 -14h14q8 0 14 16q4 8 6.5 23.5t4.5 33t4 25.5q2 14 7 38l7 34l158 694h178l-277 -1071h-221z" />
<glyph unicode="w" horiz-adv-x="1478" d="M80 1071h180l129 -577l51 -289l17 -15q12 8 18 15l55 289l129 577h193l129 -569l53 -297q0 -2 10 -12q16 12 19 24l51 291l119 563h166q0 -10 -2 -16l-273 -1055h-190l-109 494l-57 368q-2 12 -18 21q-14 -6 -17 -19l-71 -413l-105 -451h-190z" />
<glyph unicode="x" d="M78 0l325 539l-323 532h219l203 -383q2 -2 8 -6q12 6 14 10l201 379h205l-316 -520l332 -551h-215l-217 408q-4 4 -6 4q0 -2 -4 -2t-6 -2l-215 -408h-205z" />
<glyph unicode="y" horiz-adv-x="909" d="M37 1071h194l160 -496q10 -27 43 -151q20 -74 29 -80l12 6q29 123 62 232l147 489h180l-338 -1057q-74 -229 -144.5 -300.5t-211.5 -71.5q-57 0 -121 18v201h37q39 -53 107 -54q66 0 99.5 52.5t90.5 218.5z" />
<glyph unicode="z" horiz-adv-x="909" d="M94 137l340 541q100 158 139 196q18 18 19 31q0 6 -2 10q-6 4 -15 5l-108 -5h-352v156h686v-141l-471 -735q-6 -8 -11 -29q12 -14 31 -14q10 0 114.5 5t127.5 5h215v-162h-713v137z" />
<glyph unicode="{" horiz-adv-x="681" d="M96 653v138q68 0 119 66.5t51 170.5v234q0 123 68.5 195.5t152.5 72.5h148v-127h-103q-98 0 -98 -176v-232q0 -125 -61.5 -192.5t-116.5 -77.5v-6q33 -8 68.5 -29.5t72.5 -88t37 -161.5v-174q0 -176 98 -176h103v-127h-148q-84 0 -152.5 73t-68.5 195v177q0 109 -51 177 t-119 68z" />
<glyph unicode="|" horiz-adv-x="454" d="M143 -512v2048h168v-2048h-168z" />
<glyph unicode="}" horiz-adv-x="681" d="M47 -37v127h103q98 0 98 176v174q0 94 37 161t72.5 88.5t68.5 29.5v6q-55 10 -116.5 77.5t-61.5 192.5v232q0 176 -98 176h-103v127h148q84 0 152.5 -73t68.5 -195v-234q0 -104 51 -170.5t119 -66.5v-138q-68 0 -119 -68.5t-51 -176.5v-177q0 -123 -68.5 -195.5 t-152.5 -72.5h-148z" />
<glyph unicode="~" horiz-adv-x="1228" d="M121 477q55 88 118.5 136.5t151.5 48.5q115 0 242 -70q131 -70 205 -70q90 0 180 131l90 -106q-57 -88 -120 -135q-60 -45 -143 -45h-7q-78 0 -230 69l-29 15l-31 14l-28 12q-18 8 -31.5 12.5t-31 8.5t-33.5 6t-33 2q-96 0 -176 -135z" />
<glyph unicode="&#xa1;" horiz-adv-x="796" d="M258 1022q0 59 42 100t99 41q55 0 98.5 -42t43.5 -99q0 -55 -40 -97t-100 -42q-66 0 -104.5 41t-38.5 98zM289 -358l2 125l39 878h131l39 -878l2 -125h-213z" />
<glyph unicode="&#xa2;" horiz-adv-x="1138" d="M174 -258l141 352q-61 63 -95 167t-39 158t-5 99q0 272 109 422q113 154 288 154q63 0 134 -27l96 238h108l-114 -285q23 -14 51 -51q43 -57 70 -117l-156 -78q-16 49 -33 76l-264 -662q57 -53 131 -53q80 0 124 57.5t58 147.5l164 -74q-27 -133 -119 -211t-227 -78 q-111 0 -197 50l-114 -285h-111zM356 590q0 -190 33 -281q4 -10 8 -14l254 633q-33 16 -71 16q-98 0 -161 -96t-63 -258z" />
<glyph unicode="&#xa3;" horiz-adv-x="1138" d="M18 678v133h226q-35 193 -35 283q0 184 111.5 312t320.5 128q182 0 344 -129l-106 -180q-96 150 -256 149q-76 0 -126.5 -30.5t-69.5 -78.5t-25.5 -78t-6.5 -57q0 -59 56 -319h321v-133h-299q0 -10 3 -68.5t3 -66.5q0 -133 -57 -291q193 -113 303 -113q182 0 199 217h125 q-2 -68 -6.5 -110.5t-34 -112.5t-84.5 -115q-74 -59 -191 -59q-182 0 -385 166q-72 -80 -150.5 -122t-131.5 -40v217q98 16 165.5 103.5t67.5 222.5q0 84 -25 172h-256z" />
<glyph unicode="&#xa4;" horiz-adv-x="1228" d="M51 184l201 201q-76 109 -76 252q0 147 76 252l-201 201l115 110l196 -201q109 80 252 80q152 0 252 -80l201 201l111 -110l-201 -201q80 -109 80 -252t-80 -252l201 -201l-111 -110l-201 200q-104 -76 -252 -75q-150 0 -252 75l-196 -200zM344 637q0 -115 78 -199 t192 -84q117 0 196 83t79 200t-79 202t-196 85q-115 0 -192.5 -85t-77.5 -202z" />
<glyph unicode="&#xa5;" horiz-adv-x="1366" d="M248 324v127h334v335l-9 25h-325v127h266l-266 563h235l170 -409q8 -18 17.5 -51t15.5 -49.5t12 -16.5q8 0 15.5 18.5t18.5 54t20 58.5l163 397h207l-258 -565h258v-127h-315l-4 -14v-346h319v-127h-319v-324h-221v324h-334z" />
<glyph unicode="&#xa6;" horiz-adv-x="454" d="M143 -358v716h168v-716h-168zM143 666v716h168v-716h-168z" />
<glyph unicode="&#xa7;" horiz-adv-x="1138" d="M125 788q0 61 26.5 108.5t64.5 72t68.5 37t47.5 12.5q29 0 28 12q0 10 -38 29q-41 20 -82 78.5t-41 132.5q0 115 98 191.5t240 76.5q137 0 237 -63.5t144 -147.5l-146 -59q-92 150 -233 149q-63 0 -110.5 -35.5t-47.5 -95.5q0 -49 32.5 -87t108.5 -77q16 -8 78 -37 l180 -86q207 -98 207 -266q0 -57 -21.5 -102t-64.5 -73t-68.5 -40t-70.5 -26v-7q4 -6 32.5 -27.5t30.5 -23.5q88 -80 88 -192q0 -119 -94 -200t-264 -81q-133 0 -238 72q-76 53 -141 151l156 62q16 -33 27.5 -51.5t40 -50t72.5 -48t99.5 -16.5t93 16.5t55 42t25 46t7.5 38.5 q0 96 -134 152l-192 82q-301 128 -301 331zM270 825q0 -76 95 -139q29 -20 102.5 -57t116.5 -51q63 -25 121 -25q63 0 99 30.5t36 80.5q0 74 -49.5 120.5t-163.5 100.5q-147 68 -222 67q-68 0 -101.5 -38t-33.5 -89z" />
<glyph unicode="&#xa8;" horiz-adv-x="569" d="M27 1200v209h188v-209h-188zM356 1200v209h187v-209h-187z" />
<glyph unicode="&#xa9;" horiz-adv-x="1638" d="M63 719q0 319 223.5 529t534.5 210q201 0 373 -93t276.5 -264t104.5 -382q0 -322 -222.5 -533t-531.5 -211q-311 0 -534.5 211t-223.5 533zM203 719q0 -262 180 -444.5t438 -182.5t436.5 182.5t178.5 444.5q0 258 -178.5 440t-436.5 182t-438 -182t-180 -440zM414 721 q0 197 115.5 322.5t312.5 125.5q143 0 244.5 -79.5t121.5 -227.5h-141q-14 78 -75.5 124t-149.5 46q-125 0 -196 -86t-71 -223q0 -131 75 -224t196 -93q90 0 150.5 49t70.5 129h143q-27 -143 -127 -228.5t-237 -85.5q-193 0 -312.5 128t-119.5 323z" />
<glyph unicode="&#xaa;" horiz-adv-x="716" d="M33 1004q0 111 102 182q102 70 287 69v74q0 16 -2 26.5t-10.5 27t-31 25.5t-56.5 9q-61 0 -201 -57l-51 84q53 27 82.5 39t76.5 23.5t101 11.5q100 0 159 -43q63 -47 64 -148v-326q0 -23 2 -35t16.5 -23t42.5 -11v-88q-111 6 -147 43q-31 31 -35 65l-2 2q-18 -29 -35 -39 q-90 -70 -194 -69q-72 0 -120 47.5t-48 110.5zM164 1026q0 -41 24.5 -71.5t57.5 -30.5q72 0 176 92v166q-115 -2 -186.5 -42t-71.5 -114z" />
<glyph unicode="&#xab;" horiz-adv-x="1138" d="M160 543l264 315h176l-270 -313l252 -320v-8h-172zM530 543l267 315h176l-271 -313l250 -320v-8h-170z" />
<glyph unicode="&#xac;" horiz-adv-x="1228" d="M98 647v168h1032v-592h-167v424h-865z" />
<glyph unicode="&#xad;" horiz-adv-x="681" d="M76 442v172h530v-172h-530z" />
<glyph unicode="&#xae;" horiz-adv-x="1638" d="M63 719q0 319 223.5 529t534.5 210q201 0 373 -93t276.5 -264t104.5 -382q0 -322 -222.5 -533t-531.5 -211q-311 0 -534.5 211t-223.5 533zM203 719q0 -262 180 -444.5t438 -182.5t436.5 182.5t178.5 444.5q0 258 -178.5 440t-436.5 182t-438 -182t-180 -440zM526 311 v828h324q287 0 287 -209q0 -76 -45 -130.5t-123 -70.5v-8q43 -6 69.5 -19.5t40 -42t18.5 -51t11 -71.5q2 -16 8 -55l10 -62q4 -25 12.5 -56.5t18.5 -52.5h-151q-25 131 -25 140q-2 12 -5 40.5t-5 43t-8.5 34t-14.5 33.5q-35 70 -106 70h-176v-361h-140zM666 782h176 q147 0 147 127q0 123 -147 123h-176v-250z" />
<glyph unicode="&#xaf;" horiz-adv-x="569" d="M-35 1245v119h639v-119h-639z" />
<glyph unicode="&#xb0;" horiz-adv-x="819" d="M104 1155q0 127 89.5 215t218.5 88q125 0 214 -88t89 -215q0 -129 -88 -218t-215 -89q-129 0 -218.5 89t-89.5 218zM203 1155q0 -90 60.5 -155.5t148.5 -65.5q86 0 145 65.5t59 155.5q0 88 -60 152.5t-144 64.5q-88 0 -148.5 -64.5t-60.5 -152.5z" />
<glyph unicode="&#xb1;" horiz-adv-x="1228" d="M98 -74v168h1032v-168h-1032zM98 565v168h432v352h168v-352h432v-168h-432v-352h-168v352h-432z" />
<glyph unicode="&#xb2;" horiz-adv-x="819" d="M86 1343q53 106 147 156q74 41 166 41q39 0 84 -10t97.5 -36t86 -82t33.5 -134t-47 -143q-51 -72 -194 -172l-105 -74q-51 -37 -88 -90q-12 -20 -20 -66h456v-110h-606q4 154 63.5 240.5t207.5 193.5q59 41 95 70.5t67.5 72.5t31.5 82q0 55 -37 101.5t-116 46.5 q-154 0 -218 -148z" />
<glyph unicode="&#xb3;" horiz-adv-x="819" d="M55 711q25 -2 60 -2q211 0 329 73q45 27 73 62t34 55.5t6 36.5q0 63 -43 96t-111 33q-45 0 -155 -35l-37 90q104 39 153.5 63.5t96.5 67.5q49 37 49 84t-37 74t-82 27q-47 0 -94 -20.5t-71.5 -38t-84.5 -66.5l-71 92q150 137 329 137q106 0 175 -48t69 -140 q0 -121 -190 -205q117 -4 180 -62q63 -59 63 -149q0 -68 -43 -136.5t-133 -117.5q-151 -84 -427 -84h-38v113z" />
<glyph unicode="&#xb4;" horiz-adv-x="569" d="M137 1176l182 288h224l-269 -288h-137z" />
<glyph unicode="&#xb5;" horiz-adv-x="1179" d="M160 -393v1464h168v-686q0 -123 66.5 -194.5t185.5 -71.5q125 0 200.5 95t75.5 224v633h168v-1071h-168v156h-8q-96 -180 -289 -181q-147 0 -229 107h-6l2 -8q2 -10 2 -135v-332h-168z" />
<glyph unicode="&#xb6;" horiz-adv-x="1228" d="M59 1094q0 197 130 303t350 106h532v-1822h-168v1675h-237v-1675h-168v999q-197 0 -318 117t-121 297z" />
<glyph unicode="&#xb7;" horiz-adv-x="569" d="M143 770q0 59 42 98t98 39q57 0 100 -40t43 -99q0 -51 -39 -93t-102 -42q-57 0 -99.5 39t-42.5 98z" />
<glyph unicode="&#xb8;" horiz-adv-x="569" d="M31 -416l35 82q90 -31 133 -31q117 0 116 86q0 41 -32.5 60.5t-65.5 19.5q-23 0 -80 -16l-35 39l129 176h99l-94 -127q41 8 63 8q90 0 131 -47t41 -106q0 -84 -66.5 -136.5t-175.5 -52.5q-77 0 -198 45z" />
<glyph unicode="&#xb9;" horiz-adv-x="819" d="M115 1413v109h362v-793h191v-106h-539v106h207v684h-221z" />
<glyph unicode="&#xba;" horiz-adv-x="716" d="M84 1194q0 160 76 243t192 83q129 0 206 -90.5t77 -251.5q0 -150 -78 -241t-201 -91q-127 0 -199.5 92t-72.5 256zM209 1176q0 -100 43 -160t106.5 -60t102.5 56.5t39 173.5q0 231 -144 231q-66 0 -106.5 -59t-40.5 -182z" />
<glyph unicode="&#xbb;" horiz-adv-x="1138" d="M166 858h174l266 -315l-252 -326h-170v8l250 320zM537 858h176l266 -315l-252 -326h-170v8l250 320z" />
<glyph unicode="&#xbc;" horiz-adv-x="2048" d="M104 1419v103h363v-799h190v-100h-538v100h213v696h-228zM541 -27l891 1565h131l-889 -1565h-133zM1249 250v137l314 514h215v-547h108v-104h-108v-250h-127v250h-402zM1348 352h301v486h-13l-288 -478q-2 -2 -2 -4t2 -4z" />
<glyph unicode="&#xbd;" horiz-adv-x="2048" d="M88 1419v103h363v-799h190v-100h-539v100h213v696h-227zM524 -27l891 1565h131l-889 -1565h-133zM1343 721q53 106 148 156q74 41 166 40q39 0 84 -10t97 -35.5t86 -82t34 -134t-47 -143.5q-51 -72 -195 -172l-104 -74q-51 -37 -88 -90q-12 -20 -21 -65h457v-111h-606 q4 154 63.5 241t206.5 193q59 41 95 71t68 73t32 81q0 55 -37 101.5t-117 46.5q-154 0 -217 -148z" />
<glyph unicode="&#xbe;" horiz-adv-x="2048" d="M141 705q25 -2 66 -3q211 0 330 74q113 68 112 166q0 66 -44 97.5t-116 31.5q-47 0 -149 -35l-37 84q104 39 153.5 63.5t96.5 67.5q49 37 49 90q0 47 -39 74t-92 27q-47 0 -92 -19.5t-72.5 -40t-79.5 -65.5l-71 86q150 137 329 137q106 0 175 -48t69 -140 q0 -121 -190 -205q117 -4 180 -62q63 -59 63 -149q0 -68 -43 -136.5t-133 -117.5q-151 -84 -427 -84h-38v107zM610 -27l891 1565h131l-889 -1565h-133zM1360 250v137l313 514h215v-547h109v-104h-109v-250h-127v250h-401zM1458 352h301v486h-12l-289 -478q-2 -2 -2 -4t2 -4z " />
<glyph unicode="&#xbf;" d="M158 -23q0 57 19.5 108.5t36.5 75t58 75.5q145 170 162 202q33 72 33 215v33h172q1 -23 1 -45q0 -147 -36 -241q-41 -108 -135 -216q-70 -80 -91.5 -117.5t-21.5 -99.5q0 -72 48.5 -120t125.5 -48q51 0 89 18.5t60.5 52.5t33 56.5t20.5 55.5l191 -70q-68 -154 -203 -221 q-82 -41 -199 -41q-45 0 -99 13t-117.5 45t-105.5 101.5t-42 167.5zM410 1036q0 74 48 110t97 36q57 0 100 -43t43 -101q0 -53 -38.5 -95t-102.5 -42q-61 0 -104 40t-43 95z" />
<glyph unicode="&#xc0;" horiz-adv-x="1366" d="M70 0l485 1503h236l507 -1503h-219l-102 313h-594l-94 -313h-219zM401 1896h224l182 -288h-137zM436 487h482l-238 766q-4 8 -10 8.5t-11 -10.5z" />
<glyph unicode="&#xc1;" horiz-adv-x="1366" d="M70 0l485 1503h236l507 -1503h-219l-102 313h-594l-94 -313h-219zM436 487h482l-238 766q-4 8 -10 8.5t-11 -10.5zM537 1608l182 288h223l-268 -288h-137z" />
<glyph unicode="&#xc2;" horiz-adv-x="1366" d="M70 0l485 1503h236l507 -1503h-219l-102 313h-594l-94 -313h-219zM385 1608l205 288h188l205 -288h-164l-135 192l-135 -192h-164zM436 487h482l-238 766q-4 8 -10 8.5t-11 -10.5z" />
<glyph unicode="&#xc3;" horiz-adv-x="1366" d="M70 0l485 1503h236l507 -1503h-219l-102 313h-594l-94 -313h-219zM336 1626q14 123 75.5 172t137.5 49q63 0 182 -49q63 -27 96 -26q88 0 101 92h104q-14 -123 -79.5 -173.5t-127.5 -50.5q-37 0 -172 46q-96 33 -125 32q-33 0 -55 -18.5t-28.5 -32.5t-14.5 -41h-94z M436 487h482l-238 766q-4 8 -10 8.5t-11 -10.5z" />
<glyph unicode="&#xc4;" horiz-adv-x="1366" d="M70 0l485 1503h236l507 -1503h-219l-102 313h-594l-94 -313h-219zM426 1632v209h188v-209h-188zM436 487h482l-238 766q-4 8 -10 8.5t-11 -10.5zM756 1632v209h186v-209h-186z" />
<glyph unicode="&#xc5;" horiz-adv-x="1366" d="M70 0l485 1503h236l507 -1503h-219l-102 313h-594l-94 -313h-219zM436 487h482l-238 766q-4 8 -10 8.5t-11 -10.5zM504 1796q0 78 53 130t131 52q76 0 128 -53t52 -129q0 -78 -52 -131t-128 -53q-78 0 -131 53t-53 131zM592 1796q0 -39 27.5 -68.5t68.5 -29.5 q37 0 64.5 29.5t27.5 68.5t-27.5 68.5t-64.5 29.5q-41 0 -68.5 -28.5t-27.5 -69.5z" />
<glyph unicode="&#xc6;" horiz-adv-x="2048" d="M39 0l713 1503h1126v-184h-688v-442h493v-185h-493v-508h717v-184h-928v422h-518l-193 -422h-229zM539 592h438v760h-90z" />
<glyph unicode="&#xc7;" horiz-adv-x="1251" d="M129 737q0 115 12.5 216.5t47 209t89 184t147.5 126t216 49.5q193 0 313 -123q106 -109 133 -295l-196 -37q-18 162 -107 227q-59 49 -143 49q-166 0 -246 -196q-25 -61 -40 -151.5t-18 -138.5t-3 -71q0 -651 307 -651q125 0 199 115q43 72 53 205l205 -37 q-14 -211 -142 -338q-117 -117 -282 -127l-60 -80q41 8 64 8q90 0 131 -47t41 -106q0 -84 -66.5 -136.5t-175.5 -52.5q-78 0 -198 45l34 82q88 -31 134 -31q117 0 116 86q0 41 -32.5 60.5t-65.5 19.5q-23 0 -80 -16l-35 39l97 131q-53 6 -104.5 23.5t-117 70.5t-112.5 134 t-81 224.5t-34 329.5z" />
<glyph unicode="&#xc8;" horiz-adv-x="1366" d="M246 0v1503h934v-184h-719v-436h530v-191h-526v-502h754v-190h-973zM401 1896h224l182 -288h-137z" />
<glyph unicode="&#xc9;" horiz-adv-x="1366" d="M246 0v1503h934v-184h-719v-436h530v-191h-526v-502h754v-190h-973zM537 1608l182 288h223l-268 -288h-137z" />
<glyph unicode="&#xca;" horiz-adv-x="1366" d="M246 0v1503h934v-184h-719v-436h530v-191h-526v-502h754v-190h-973zM385 1608l205 288h188l205 -288h-164l-135 192l-135 -192h-164z" />
<glyph unicode="&#xcb;" horiz-adv-x="1366" d="M246 0v1503h934v-184h-719v-436h530v-191h-526v-502h754v-190h-973zM426 1632v209h188v-209h-188zM756 1632v209h186v-209h-186z" />
<glyph unicode="&#xcc;" horiz-adv-x="796" d="M117 1896h223l182 -288h-137zM162 0v133h127v1233h-127v137h473v-137h-133v-1233h133v-133h-473z" />
<glyph unicode="&#xcd;" horiz-adv-x="796" d="M162 0v133h127v1233h-127v137h473v-137h-133v-1233h133v-133h-473zM252 1608l182 288h223l-268 -288h-137z" />
<glyph unicode="&#xce;" horiz-adv-x="796" d="M100 1608l205 288h189l204 -288h-163l-136 192l-135 -192h-164zM162 0v133h127v1233h-127v137h473v-137h-133v-1233h133v-133h-473z" />
<glyph unicode="&#xcf;" horiz-adv-x="796" d="M141 1632v209h189v-209h-189zM162 0v133h127v1233h-127v137h473v-137h-133v-1233h133v-133h-473zM471 1632v209h186v-209h-186z" />
<glyph unicode="&#xd0;" horiz-adv-x="1366" d="M74 692v180h139v631h326q698 0 698 -772q0 -258 -107 -444q-31 -55 -66.5 -96t-101 -89.5t-173 -75t-248.5 -26.5h-328v692h-139zM422 190h156q440 0 440 564q0 287 -119 430q-59 72 -146 100.5t-231 28.5h-100v-441h237v-180h-237v-502z" />
<glyph unicode="&#xd1;" horiz-adv-x="1478" d="M238 1503h266l436 -966q0 -2 29.5 -75t31.5 -75q35 -92 62 -170q2 0 6 -1t6 -1q8 8 8 31q0 12 -4 73.5t-4 71.5q-4 94 -4 223v889h172v-1503h-262l-438 977q-72 162 -121 319q0 2 -4 2t-6 2q-12 -10 -13 -22q0 -25 7 -152l4 -127v-999h-172v1503zM391 1626 q14 123 75.5 172t137.5 49q63 0 182 -49q63 -27 97 -26q88 0 100 92h104q-14 -123 -79.5 -173.5t-126.5 -50.5q-37 0 -172 46q-96 33 -125 32q-33 0 -55.5 -18.5t-28.5 -32.5t-15 -41h-94z" />
<glyph unicode="&#xd2;" horiz-adv-x="1251" d="M119 727q0 379 123 576q139 223 385 223q174 0 284.5 -103.5t163.5 -261.5q57 -170 58 -413q0 -147 -24 -277.5t-77 -251.5t-156.5 -192.5t-248.5 -71.5q-133 0 -233.5 63.5t-159 173t-87 244.5t-28.5 291zM334 733q0 -92 9 -176t36 -187.5t89 -166t155 -62.5 q156 0 225.5 151.5t69.5 448.5q0 604 -287 605q-182 0 -252 -232q-45 -141 -45 -381zM344 1896h223l183 -288h-138z" />
<glyph unicode="&#xd3;" horiz-adv-x="1251" d="M119 727q0 379 123 576q139 223 385 223q174 0 284.5 -103.5t163.5 -261.5q57 -170 58 -413q0 -147 -24 -277.5t-77 -251.5t-156.5 -192.5t-248.5 -71.5q-133 0 -233.5 63.5t-159 173t-87 244.5t-28.5 291zM334 733q0 -92 9 -176t36 -187.5t89 -166t155 -62.5 q156 0 225.5 151.5t69.5 448.5q0 604 -287 605q-182 0 -252 -232q-45 -141 -45 -381zM479 1608l183 288h223l-269 -288h-137z" />
<glyph unicode="&#xd4;" horiz-adv-x="1251" d="M119 727q0 379 123 576q139 223 385 223q174 0 284.5 -103.5t163.5 -261.5q57 -170 58 -413q0 -147 -24 -277.5t-77 -251.5t-156.5 -192.5t-248.5 -71.5q-133 0 -233.5 63.5t-159 173t-87 244.5t-28.5 291zM328 1608l204 288h189l205 -288h-164l-135 192l-135 -192h-164z M334 733q0 -92 9 -176t36 -187.5t89 -166t155 -62.5q156 0 225.5 151.5t69.5 448.5q0 604 -287 605q-182 0 -252 -232q-45 -141 -45 -381z" />
<glyph unicode="&#xd5;" horiz-adv-x="1251" d="M119 727q0 379 123 576q139 223 385 223q174 0 284.5 -103.5t163.5 -261.5q57 -170 58 -413q0 -147 -24 -277.5t-77 -251.5t-156.5 -192.5t-248.5 -71.5q-133 0 -233.5 63.5t-159 173t-87 244.5t-28.5 291zM279 1626q14 123 75.5 172t137.5 49q63 0 182 -49 q63 -27 96 -26q88 0 100 92h105q-14 -123 -80 -173.5t-127 -50.5q-37 0 -172 45q-96 33 -125 33q-33 0 -55.5 -18.5t-28.5 -32.5t-14 -41h-94zM334 733q0 -92 9 -176t36 -187.5t89 -166t155 -62.5q156 0 225.5 151.5t69.5 448.5q0 604 -287 605q-182 0 -252 -232 q-45 -141 -45 -381z" />
<glyph unicode="&#xd6;" horiz-adv-x="1251" d="M119 727q0 379 123 576q139 223 385 223q174 0 284.5 -103.5t163.5 -261.5q57 -170 58 -413q0 -147 -24 -277.5t-77 -251.5t-156.5 -192.5t-248.5 -71.5q-133 0 -233.5 63.5t-159 173t-87 244.5t-28.5 291zM334 733q0 -92 9 -176t36 -187.5t89 -166t155 -62.5 q156 0 225.5 151.5t69.5 448.5q0 604 -287 605q-182 0 -252 -232q-45 -141 -45 -381zM369 1632v209h188v-209h-188zM698 1632v209h187v-209h-187z" />
<glyph unicode="&#xd7;" horiz-adv-x="1228" d="M133 152l367 366l-367 367l115 114l364 -366l369 366l115 -114l-369 -367l369 -366l-115 -115l-369 369l-364 -369z" />
<glyph unicode="&#xd8;" horiz-adv-x="1251" d="M57 -193l191 363q-129 205 -129 557q0 379 123 576q139 223 385 223q162 0 276 -99l103 197h161l-163 -313q47 -72 71 -150q57 -170 58 -413q0 -147 -24 -277.5t-77 -251.5t-156.5 -192.5t-248.5 -71.5q-166 0 -281 98l-127 -246h-162zM334 733q0 -190 35 -330l442 848 q-68 94 -180 95q-182 0 -252 -232q-45 -141 -45 -381zM442 236q70 -94 181 -95q156 0 225.5 151.5t69.5 448.5q0 207 -35 340z" />
<glyph unicode="&#xd9;" horiz-adv-x="1478" d="M262 512v991h209v-1001q0 -356 283 -357q63 0 127.5 31t101.5 98q45 90 45 279v950h189v-1009q0 -268 -134 -404q-131 -135 -376 -135q-82 0 -180.5 38t-168.5 138q-96 141 -96 381zM457 1896h223l182 -288h-137z" />
<glyph unicode="&#xda;" horiz-adv-x="1478" d="M262 512v991h209v-1001q0 -356 283 -357q63 0 127.5 31t101.5 98q45 90 45 279v950h189v-1009q0 -268 -134 -404q-131 -135 -376 -135q-82 0 -180.5 38t-168.5 138q-96 141 -96 381zM592 1608l182 288h223l-268 -288h-137z" />
<glyph unicode="&#xdb;" horiz-adv-x="1478" d="M262 512v991h209v-1001q0 -356 283 -357q63 0 127.5 31t101.5 98q45 90 45 279v950h189v-1009q0 -268 -134 -404q-131 -135 -376 -135q-82 0 -180.5 38t-168.5 138q-96 141 -96 381zM440 1608l205 288h189l204 -288h-164l-135 192l-135 -192h-164z" />
<glyph unicode="&#xdc;" horiz-adv-x="1478" d="M262 512v991h209v-1001q0 -356 283 -357q63 0 127.5 31t101.5 98q45 90 45 279v950h189v-1009q0 -268 -134 -404q-131 -135 -376 -135q-82 0 -180.5 38t-168.5 138q-96 141 -96 381zM481 1632v209h189v-209h-189zM811 1632v209h186v-209h-186z" />
<glyph unicode="&#xdd;" horiz-adv-x="1366" d="M70 1501h245l318 -614q2 -2 13 -28l22 -48l12 -23l14 -18h15l32 68l31 63l311 602h215l-495 -911v-592h-221v582zM537 1608l182 288h223l-268 -288h-137z" />
<glyph unicode="&#xde;" horiz-adv-x="1366" d="M252 0v1503h209v-256h117q315 0 460 -104q184 -129 185 -355q0 -213 -154 -335q-86 -70 -189.5 -90.5t-236.5 -20.5h-182v-342h-209zM461 522q27 -2 82 -2q109 0 180.5 9.5t139 36t101 83t33.5 144.5q0 279 -407 278h-129v-549z" />
<glyph unicode="&#xdf;" horiz-adv-x="1138" d="M180 0l2 1038q0 76 4 126t30 122t75 125q109 113 276 113q152 0 264.5 -95.5t112.5 -273.5q0 -82 -29.5 -148.5t-75.5 -103.5t-71 -52t-49 -24v-4q12 -10 45 -20q35 -10 75 -35t88 -71t78.5 -127t30.5 -181q0 -186 -92 -301t-246 -115q-74 0 -153 27v162q53 -29 112 -29 q190 0 191 275q0 147 -66 225q-70 86 -223 92v168q139 16 184 127q23 51 23 117q0 94 -51 163.5t-146 69.5q-205 0 -204 -280v-1090h-185z" />
<glyph unicode="&#xe0;" d="M49 242q0 186 158 303q156 115 457 119v139q0 25 -3.5 42t-17.5 46t-51 44t-96 15q-129 0 -310 -112l-80 137q84 45 129.5 65.5t118 39t154.5 18.5q154 0 246 -72q98 -78 98 -246v-540q0 -39 3 -58.5t25 -40.5q20 -19 56 -18h8v-146q-80 4 -126 16.5t-83 55.5 q-45 45 -53 107l-6 4q-6 -4 -35 -33t-33 -31q-84 -74 -149.5 -95t-149.5 -21q-111 0 -185.5 78t-74.5 184zM229 1464h224l182 -288h-137zM236 279q0 -70 44 -119t115 -49q55 0 112.5 29.5t85.5 54t71 67.5v293q-182 -2 -305 -72.5t-123 -203.5z" />
<glyph unicode="&#xe1;" d="M49 242q0 186 158 303q156 115 457 119v139q0 25 -3.5 42t-17.5 46t-51 44t-96 15q-129 0 -310 -112l-80 137q84 45 129.5 65.5t118 39t154.5 18.5q154 0 246 -72q98 -78 98 -246v-540q0 -39 3 -58.5t25 -40.5q20 -19 56 -18h8v-146q-80 4 -126 16.5t-83 55.5 q-45 45 -53 107l-6 4q-6 -4 -35 -33t-33 -31q-84 -74 -149.5 -95t-149.5 -21q-111 0 -185.5 78t-74.5 184zM236 279q0 -70 44 -119t115 -49q55 0 112.5 29.5t85.5 54t71 67.5v293q-182 -2 -305 -72.5t-123 -203.5zM365 1176l182 288h223l-268 -288h-137z" />
<glyph unicode="&#xe2;" d="M49 242q0 186 158 303q156 115 457 119v139q0 25 -3.5 42t-17.5 46t-51 44t-96 15q-129 0 -310 -112l-80 137q84 45 129.5 65.5t118 39t154.5 18.5q154 0 246 -72q98 -78 98 -246v-540q0 -39 3 -58.5t25 -40.5q20 -19 56 -18h8v-146q-80 4 -126 16.5t-83 55.5 q-45 45 -53 107l-6 4q-6 -4 -35 -33t-33 -31q-84 -74 -149.5 -95t-149.5 -21q-111 0 -185.5 78t-74.5 184zM213 1176l205 288h188l205 -288h-164l-135 192l-135 -192h-164zM236 279q0 -70 44 -119t115 -49q55 0 112.5 29.5t85.5 54t71 67.5v293q-182 -2 -305 -72.5 t-123 -203.5z" />
<glyph unicode="&#xe3;" d="M49 242q0 186 158 303q156 115 457 119v139q0 25 -3.5 42t-17.5 46t-51 44t-96 15q-129 0 -310 -112l-80 137q84 45 129.5 65.5t118 39t154.5 18.5q154 0 246 -72q98 -78 98 -246v-540q0 -39 3 -58.5t25 -40.5q20 -19 56 -18h8v-146q-80 4 -126 16.5t-83 55.5 q-45 45 -53 107l-6 4q-6 -4 -35 -33t-33 -31q-84 -74 -149.5 -95t-149.5 -21q-111 0 -185.5 78t-74.5 184zM164 1194q14 123 75.5 172t137.5 49q63 0 182 -49q63 -27 96 -27q88 0 101 93h104q-14 -123 -79.5 -173.5t-127.5 -50.5q-37 0 -172 45q-96 33 -125 33 q-33 0 -55 -18.5t-28.5 -32.5t-14.5 -41h-94zM236 279q0 -70 44 -119t115 -49q55 0 112.5 29.5t85.5 54t71 67.5v293q-182 -2 -305 -72.5t-123 -203.5z" />
<glyph unicode="&#xe4;" d="M49 242q0 186 158 303q156 115 457 119v139q0 25 -3.5 42t-17.5 46t-51 44t-96 15q-129 0 -310 -112l-80 137q84 45 129.5 65.5t118 39t154.5 18.5q154 0 246 -72q98 -78 98 -246v-540q0 -39 3 -58.5t25 -40.5q20 -19 56 -18h8v-146q-80 4 -126 16.5t-83 55.5 q-45 45 -53 107l-6 4q-6 -4 -35 -33t-33 -31q-84 -74 -149.5 -95t-149.5 -21q-111 0 -185.5 78t-74.5 184zM236 279q0 -70 44 -119t115 -49q55 0 112.5 29.5t85.5 54t71 67.5v293q-182 -2 -305 -72.5t-123 -203.5zM254 1200v209h188v-209h-188zM584 1200v209h186v-209h-186z " />
<glyph unicode="&#xe5;" d="M49 242q0 186 158 303q156 115 457 119v139q0 25 -3.5 42t-17.5 46t-51 44t-96 15q-129 0 -310 -112l-80 137q84 45 129.5 65.5t118 39t154.5 18.5q154 0 246 -72q98 -78 98 -246v-540q0 -39 3 -58.5t25 -40.5q20 -19 56 -18h8v-146q-80 4 -126 16.5t-83 55.5 q-45 45 -53 107l-6 4q-6 -4 -35 -33t-33 -31q-84 -74 -149.5 -95t-149.5 -21q-111 0 -185.5 78t-74.5 184zM236 279q0 -70 44 -119t115 -49q55 0 112.5 29.5t85.5 54t71 67.5v293q-182 -2 -305 -72.5t-123 -203.5zM332 1364q0 78 53 130t131 52q76 0 128 -53t52 -129 q0 -78 -52 -131t-128 -53q-78 0 -131 53t-53 131zM420 1364q0 -39 27.5 -68.5t68.5 -29.5q37 0 64.5 29.5t27.5 68.5t-27.5 68.5t-64.5 29.5q-41 0 -68.5 -28.5t-27.5 -69.5z" />
<glyph unicode="&#xe6;" horiz-adv-x="1593" d="M96 258q0 70 25.5 131.5t64.5 100t68 59t51 33.5q143 74 400 82v139q0 25 -3.5 42t-17.5 46t-53 44t-99 15q-145 0 -296 -116l-82 141l113.5 61.5t106 39t134.5 18.5q158 0 283 -88q8 -8 18 -9l43 29q35 25 56.5 36t65.5 22.5t101 11.5q145 0 260 -109q129 -127 138 -373 l2 -98h-635q0 -10 -1 -20q0 -162 63 -268q67 -112 206 -111q121 0 205 90l106 -98q-147 -135 -344 -136q-121 0 -202.5 53.5t-112.5 104.5q-12 20 -21 21q-10 0 -14 -2q-176 -172 -356 -173q-121 0 -191 72q-82 84 -82 209zM285 283q0 -63 38.5 -117.5t118.5 -54.5 q121 0 263 147v297q-188 -4 -304 -76.5t-116 -195.5zM844 641h446q-8 172 -73 250q-59 70 -146 70q-207 -1 -227 -320z" />
<glyph unicode="&#xe7;" horiz-adv-x="909" d="M72 518q0 272 108 422q113 154 289 154q33 0 73 -6.5t101.5 -37t99.5 -81.5q43 -57 70 -117l-156 -78q-10 29 -19 48.5t-29.5 52t-55.5 51t-78 18.5q-98 0 -160.5 -96t-62.5 -258q0 -190 33 -281q63 -174 207 -174q80 0 123.5 57.5t58.5 147.5l164 -74 q-27 -137 -133 -223q-41 -33 -104.5 -49.5t-102.5 -16.5l-78 -104q41 8 63 8q90 0 131 -47t41 -106q0 -84 -66.5 -136.5t-174.5 -52.5q-78 0 -199 45l35 82q90 -31 133 -31q117 0 117 86q0 41 -33 60.5t-66 19.5q-23 0 -79 -16l-35 39l119 162q-92 16 -160 74.5t-99.5 122 t-50 144.5t-21.5 119.5t-3 71.5z" />
<glyph unicode="&#xe8;" d="M86 506q0 154 36 269.5t84 174t111.5 94t106.5 44t82 8.5q186 0 291.5 -137.5t109.5 -344.5l2 -98h-635v-12q0 -387 258 -387q121 0 218 90l106 -98q-47 -43 -80 -66t-105.5 -46.5t-162.5 -23.5q-188 0 -305 142.5t-117 390.5zM229 1464h224l182 -288h-137zM281 641h444 q0 145 -55.5 233.5t-159.5 88.5q-135 0 -193 -136q-30 -71 -36 -186z" />
<glyph unicode="&#xe9;" d="M86 506q0 154 36 269.5t84 174t111.5 94t106.5 44t82 8.5q186 0 291.5 -137.5t109.5 -344.5l2 -98h-635v-12q0 -387 258 -387q121 0 218 90l106 -98q-47 -43 -80 -66t-105.5 -46.5t-162.5 -23.5q-188 0 -305 142.5t-117 390.5zM281 641h444q0 145 -55.5 233.5 t-159.5 88.5q-135 0 -193 -136q-30 -71 -36 -186zM365 1176l182 288h223l-268 -288h-137z" />
<glyph unicode="&#xea;" d="M86 506q0 154 36 269.5t84 174t111.5 94t106.5 44t82 8.5q186 0 291.5 -137.5t109.5 -344.5l2 -98h-635v-12q0 -387 258 -387q121 0 218 90l106 -98q-47 -43 -80 -66t-105.5 -46.5t-162.5 -23.5q-188 0 -305 142.5t-117 390.5zM213 1176l205 288h188l205 -288h-164 l-135 192l-135 -192h-164zM281 641h444q0 145 -55.5 233.5t-159.5 88.5q-135 0 -193 -136q-30 -71 -36 -186z" />
<glyph unicode="&#xeb;" d="M86 506q0 154 36 269.5t84 174t111.5 94t106.5 44t82 8.5q186 0 291.5 -137.5t109.5 -344.5l2 -98h-635v-12q0 -387 258 -387q121 0 218 90l106 -98q-47 -43 -80 -66t-105.5 -46.5t-162.5 -23.5q-188 0 -305 142.5t-117 390.5zM254 1200v209h188v-209h-188zM281 641h444 q0 145 -55.5 233.5t-159.5 88.5q-135 0 -193 -136q-30 -71 -36 -186zM584 1200v209h186v-209h-186z" />
<glyph unicode="&#xec;" horiz-adv-x="569" d="M2 1464h223l183 -288h-138zM193 0v1071h184v-1071h-184z" />
<glyph unicode="&#xed;" horiz-adv-x="569" d="M137 1176l182 288h224l-269 -288h-137zM193 0v1071h184v-1071h-184z" />
<glyph unicode="&#xee;" horiz-adv-x="569" d="M-14 1176l204 288h189l205 -288h-164l-135 192l-135 -192h-164zM193 0v1071h184v-1071h-184z" />
<glyph unicode="&#xef;" horiz-adv-x="569" d="M27 1200v209h188v-209h-188zM193 0v1071h184v-1071h-184zM356 1200v209h187v-209h-187z" />
<glyph unicode="&#xf0;" d="M88 555q0 266 117 404.5t295 138.5q119 0 205 -121q6 -6 12 -6q8 0 8 8q-51 199 -117 313l-239 -86l-41 72l237 86q-33 47 -139 168l125 37q80 -78 141 -158l234 82l41 -72l-226 -80q96 -147 145.5 -363t49.5 -448q0 -35 -5 -78.5t-18.5 -111.5t-44 -127t-74.5 -114.5 t-119 -88.5t-167 -33q-86 0 -154.5 30t-94.5 54.5t-56 63.5q-115 141 -115 430zM268 522q0 -43 9.5 -97t32 -124t74.5 -117t126 -47q70 0 119 40t71.5 105.5t31.5 128t9 130.5q0 150 -36 254q-35 100 -119 135q-35 14 -78 14q-72 0 -122 -41t-74.5 -109.5t-34 -134 t-9.5 -137.5z" />
<glyph unicode="&#xf1;" d="M145 0v1030l168 68v-209q0 -20 17 -21q10 0 35 29l41 55q100 137 258 138q80 0 139 -41q78 -51 78 -232v-817h-181v813q0 141 -106 141q-88 0 -184 -114q-80 -106 -80 -115v-725h-185zM164 1194q14 123 75.5 172t137.5 49q63 0 182 -49q63 -27 96 -27q88 0 101 93h104 q-14 -123 -79.5 -173.5t-127.5 -50.5q-37 0 -172 45q-96 33 -125 33q-33 0 -55 -18.5t-28.5 -32.5t-14.5 -41h-94z" />
<glyph unicode="&#xf2;" d="M88 555q0 266 117 404.5t295 138.5q244 0 356 -211q35 -68 57.5 -171.5t22.5 -185.5q0 -244 -117 -398.5t-311 -154.5q-86 0 -154.5 30t-94.5 54.5t-56 63.5q-115 143 -115 430zM229 1464h224l182 -288h-137zM268 522q0 -43 9.5 -97t32 -124t74.5 -117t126 -47 q70 0 119 40t71.5 105.5t31.5 128t9 130.5q0 150 -36 254q-35 100 -119 135q-35 14 -78 14q-72 0 -122 -41t-74.5 -109.5t-34 -134t-9.5 -137.5z" />
<glyph unicode="&#xf3;" d="M88 555q0 266 117 404.5t295 138.5q244 0 356 -211q35 -68 57.5 -171.5t22.5 -185.5q0 -244 -117 -398.5t-311 -154.5q-86 0 -154.5 30t-94.5 54.5t-56 63.5q-115 143 -115 430zM268 522q0 -43 9.5 -97t32 -124t74.5 -117t126 -47q70 0 119 40t71.5 105.5t31.5 128 t9 130.5q0 150 -36 254q-35 100 -119 135q-35 14 -78 14q-72 0 -122 -41t-74.5 -109.5t-34 -134t-9.5 -137.5zM365 1176l182 288h223l-268 -288h-137z" />
<glyph unicode="&#xf4;" d="M88 555q0 266 117 404.5t295 138.5q244 0 356 -211q35 -68 57.5 -171.5t22.5 -185.5q0 -244 -117 -398.5t-311 -154.5q-86 0 -154.5 30t-94.5 54.5t-56 63.5q-115 143 -115 430zM213 1176l205 288h188l205 -288h-164l-135 192l-135 -192h-164zM268 522q0 -43 9.5 -97 t32 -124t74.5 -117t126 -47q70 0 119 40t71.5 105.5t31.5 128t9 130.5q0 150 -36 254q-35 100 -119 135q-35 14 -78 14q-72 0 -122 -41t-74.5 -109.5t-34 -134t-9.5 -137.5z" />
<glyph unicode="&#xf5;" d="M88 555q0 266 117 404.5t295 138.5q244 0 356 -211q35 -68 57.5 -171.5t22.5 -185.5q0 -244 -117 -398.5t-311 -154.5q-86 0 -154.5 30t-94.5 54.5t-56 63.5q-115 143 -115 430zM164 1194q14 123 75.5 172t137.5 49q63 0 182 -49q63 -27 96 -27q88 0 101 93h104 q-14 -123 -79.5 -173.5t-127.5 -50.5q-37 0 -172 45q-96 33 -125 33q-33 0 -55 -18.5t-28.5 -32.5t-14.5 -41h-94zM268 522q0 -43 9.5 -97t32 -124t74.5 -117t126 -47q70 0 119 40t71.5 105.5t31.5 128t9 130.5q0 150 -36 254q-35 100 -119 135q-35 14 -78 14 q-72 0 -122 -41t-74.5 -109.5t-34 -134t-9.5 -137.5z" />
<glyph unicode="&#xf6;" d="M88 555q0 266 117 404.5t295 138.5q244 0 356 -211q35 -68 57.5 -171.5t22.5 -185.5q0 -244 -117 -398.5t-311 -154.5q-86 0 -154.5 30t-94.5 54.5t-56 63.5q-115 143 -115 430zM254 1200v209h188v-209h-188zM268 522q0 -43 9.5 -97t32 -124t74.5 -117t126 -47 q70 0 119 40t71.5 105.5t31.5 128t9 130.5q0 150 -36 254q-35 100 -119 135q-35 14 -78 14q-72 0 -122 -41t-74.5 -109.5t-34 -134t-9.5 -137.5zM584 1200v209h186v-209h-186z" />
<glyph unicode="&#xf7;" horiz-adv-x="1228" d="M98 434v168h1032v-168h-1032zM467 942q0 61 44 104.5t103.5 43.5t103.5 -44.5t44 -103.5q0 -55 -44 -101t-102 -46q-59 0 -104 44t-45 103zM467 94q0 61 44 104.5t103.5 43.5t103.5 -44t44 -104q0 -55 -44 -101t-102 -46q-59 0 -104 44t-45 103z" />
<glyph unicode="&#xf8;" d="M47 -121l156 246q-115 141 -115 430q0 266 117 404.5t295 138.5q158 0 260 -88l96 151h162l-168 -264q2 -2 4 -6l2 -4q37 -68 58.5 -170.5t21.5 -186.5q0 -35 -5 -78.5t-18.5 -111.5t-44 -127t-74.5 -114.5t-119 -88.5t-167 -33q-123 0 -207 56l-98 -154h-156zM268 522 q0 -117 43 -225l357 565q-33 47 -82 68q-35 14 -78 14q-72 0 -122 -41t-74.5 -109.5t-34 -134t-9.5 -137.5zM393 178q51 -41 117 -41q70 0 119 40t71.5 105.5t31.5 128t9 130.5q0 84 -14 161z" />
<glyph unicode="&#xf9;" d="M147 246v825h185v-772q0 -188 110 -188q33 0 61.5 13t64.5 53t58.5 69.5t73.5 103.5v721h179v-1036l-170 -62v199q0 27 -12.5 27t-18.5 -6q-12 -12 -41 -52.5t-45 -58.5q-100 -106 -230 -107q-96 0 -155.5 66t-59.5 205zM229 1464h224l182 -288h-137z" />
<glyph unicode="&#xfa;" d="M147 246v825h185v-772q0 -188 110 -188q33 0 61.5 13t64.5 53t58.5 69.5t73.5 103.5v721h179v-1036l-170 -62v199q0 27 -12.5 27t-18.5 -6q-12 -12 -41 -52.5t-45 -58.5q-100 -106 -230 -107q-96 0 -155.5 66t-59.5 205zM365 1176l182 288h223l-268 -288h-137z" />
<glyph unicode="&#xfb;" d="M147 246v825h185v-772q0 -188 110 -188q33 0 61.5 13t64.5 53t58.5 69.5t73.5 103.5v721h179v-1036l-170 -62v199q0 27 -12.5 27t-18.5 -6q-12 -12 -41 -52.5t-45 -58.5q-100 -106 -230 -107q-96 0 -155.5 66t-59.5 205zM213 1176l205 288h188l205 -288h-164l-135 192 l-135 -192h-164z" />
<glyph unicode="&#xfc;" d="M147 246v825h185v-772q0 -188 110 -188q33 0 61.5 13t64.5 53t58.5 69.5t73.5 103.5v721h179v-1036l-170 -62v199q0 27 -12.5 27t-18.5 -6q-12 -12 -41 -52.5t-45 -58.5q-100 -106 -230 -107q-96 0 -155.5 66t-59.5 205zM254 1200v209h188v-209h-188zM584 1200v209h186 v-209h-186z" />
<glyph unicode="&#xfd;" horiz-adv-x="909" d="M37 1071h194l160 -496q10 -27 43 -151q20 -74 29 -80l12 6q29 123 62 232l147 489h180l-338 -1057q-74 -229 -144.5 -300.5t-211.5 -71.5q-57 0 -121 18v201h37q39 -53 107 -54q66 0 99.5 52.5t90.5 218.5zM307 1176l182 288h224l-269 -288h-137z" />
<glyph unicode="&#xfe;" d="M125 -358v1816l162 72v-639q0 -25 14 -25q8 0 14 6l29 64q31 63 93.5 117.5t154.5 54.5q84 0 152.5 -46t107.5 -120q88 -164 88 -389q0 -270 -98.5 -418.5t-247.5 -148.5q-59 0 -125 34.5t-109 102.5q-33 51 -45 51q-10 0 -10 -29v-503h-180zM299 551q0 -217 76 -312.5 t180 -95.5q82 0 140.5 94.5t58.5 323.5q0 43 -3 85t-15.5 101.5t-34 102.5t-61.5 74.5t-95 31.5q-111 0 -178.5 -126.5t-67.5 -278.5z" />
<glyph unicode="&#xff;" horiz-adv-x="909" d="M37 1071h194l160 -496q10 -27 43 -151q20 -74 29 -80l12 6q29 123 62 232l147 489h180l-338 -1057q-74 -229 -144.5 -300.5t-211.5 -71.5q-57 0 -121 18v201h37q39 -53 107 -54q66 0 99.5 52.5t90.5 218.5zM197 1200v209h188v-209h-188zM526 1200v209h187v-209h-187z" />
<glyph unicode="&#x152;" horiz-adv-x="1933" d="M82 717q0 528 264 702q59 39 125 58.5t104.5 22.5t112.5 3h1114v-184h-692v-442h498v-185h-498v-502h721v-190h-1196q-156 0 -275.5 75t-189.5 212q-88 172 -88 430zM299 719q0 -205 53 -334q82 -195 301 -195q133 0 188.5 51.5t55.5 178.5v696q0 195 -217 195 q-76 0 -136.5 -21.5t-99 -54.5t-67.5 -86t-43.5 -100.5t-22.5 -113t-10 -110.5t-2 -106z" />
<glyph unicode="&#x153;" horiz-adv-x="1593" d="M104 518q0 322 142 463q119 119 286 119q84 0 159 -34t114 -83q16 -20 24 -20q2 0 11 4q47 53 124.5 91t163.5 38q90 0 182.5 -48.5t145.5 -146.5q33 -61 49.5 -122.5t19.5 -106.5t9 -156h-635v-21q0 -160 57 -266q61 -113 199 -112q117 0 217 90l107 -98 q-47 -41 -79 -63.5t-102.5 -47.5t-154.5 -25t-165 33t-132 86q-16 16 -23 17h-4q-57 -70 -131 -99q-78 -33 -174 -33q-193 0 -301.5 150.5t-108.5 390.5zM287 520q0 -47 7 -97t28.5 -120t77 -114t135.5 -44q74 0 122 44t67 116t25.5 122t6.5 105q0 412 -232 412 q-119 0 -180 -115q-57 -106 -57 -309zM903 641h447q-10 123 -24.5 174t-61.5 94q-57 51 -129 52q-84 0 -155 -80t-77 -240z" />
<glyph unicode="&#x178;" horiz-adv-x="1366" d="M70 1501h245l318 -614q2 -2 13 -28l22 -48l12 -23l14 -18h15l32 68l31 63l311 602h215l-495 -911v-592h-221v582zM426 1632v209h188v-209h-188zM756 1632v209h186v-209h-186z" />
<glyph unicode="&#x2c6;" horiz-adv-x="569" d="M-14 1176l204 288h189l205 -288h-164l-135 192l-135 -192h-164z" />
<glyph unicode="&#x2dc;" horiz-adv-x="569" d="M-63 1194q14 123 75.5 172t137.5 49q63 0 182 -49q63 -27 96 -27q88 0 100 93h105q-14 -123 -80 -173.5t-127 -50.5q-37 0 -172 45q-96 33 -125 33q-33 0 -55.5 -18.5t-28.5 -32.5t-14 -41h-94z" />
<glyph unicode="&#x2013;" d="M-2 465v123h1026v-123h-1026z" />
<glyph unicode="&#x2014;" horiz-adv-x="2048" d="M256 465v123h1536v-123h-1536z" />
<glyph unicode="&#x2018;" horiz-adv-x="569" d="M96 1526h176l236 -654h-170z" />
<glyph unicode="&#x2019;" horiz-adv-x="569" d="M61 872l236 654h176l-242 -654h-170z" />
<glyph unicode="&#x201a;" horiz-adv-x="569" d="M96 0l236 653h176l-242 -653h-170z" />
<glyph unicode="&#x201c;" horiz-adv-x="1138" d="M154 1526h176l233 -654h-168zM641 1526h174l236 -654h-168z" />
<glyph unicode="&#x201d;" horiz-adv-x="1138" d="M88 872l234 654h176l-242 -654h-168zM573 872l236 654h174l-242 -654h-168z" />
<glyph unicode="&#x201e;" horiz-adv-x="1138" d="M88 -440l234 653h176l-242 -653h-168zM573 -440l236 653h174l-242 -653h-168z" />
<glyph unicode="&#x2022;" d="M215 717q0 123 87 208t210 85t210 -85t87 -208q0 -125 -87 -213t-210 -88t-210 87t-87 214z" />
<glyph unicode="&#x2026;" horiz-adv-x="2048" d="M199 120.5q0 59.5 42 99.5t99 40q61 0 103 -42t42 -99q0 -47 -37.5 -90t-107.5 -43q-59 0 -100 37.5t-41 97zM881 120.5q0 59.5 42 99.5t99 40q61 0 103 -42t42 -99q0 -47 -37.5 -90t-107.5 -43q-59 0 -100 37.5t-41 97zM1563 120.5q0 59.5 42 99.5t99 40q61 0 103 -42 t42 -99q0 -47 -37.5 -90t-107.5 -43q-59 0 -100 37.5t-41 97z" />
<glyph unicode="&#x2039;" horiz-adv-x="796" d="M199 543l266 315h176l-270 -313l250 -320v-8h-170z" />
<glyph unicode="&#x203a;" horiz-adv-x="796" d="M156 217l270 313l-254 328h174l252 -326l-266 -315h-176z" />
<glyph unicode="&#x20ac;" horiz-adv-x="1138" d="M49 532l49 148h95q-4 41 -5 80q0 31 5 76h-144l49 147h107q35 260 162 406.5t358 146.5q207 0 324 -86v-188q-104 100 -297 100q-158 0 -247 -101.5t-108 -277.5h568l-50 -147h-536q0 -10 -1 -37t-1 -39q0 -14 1 -43t1 -37h483l-49 -148h-416q20 -190 111.5 -288.5 t243.5 -98.5q182 0 297 101v-191q-102 -80 -324 -80q-446 0 -518 557h-158z" />
<glyph unicode="&#x2122;" horiz-adv-x="2027" d="M119 1372v131h680v-131h-256v-713h-168v713h-256zM971 659v844h239l232 -598l229 598h238v-844h-156v664h-4l-252 -664h-115l-252 664h-4v-664h-155z" />
<glyph unicode="&#xe000;" horiz-adv-x="1070" d="M0 1070h1070v-1070h-1070v1070z" />
<glyph unicode="&#xfb01;" horiz-adv-x="1138" d="M43 877v122h178q-4 27 -4 59q0 21 2 45q4 58 9 119.5t33 121t68 106.5t114.5 75.5t174.5 28.5q162 0 312 -65v-184q-168 92 -297 92q-109 0 -168 -70q-43 -51 -52 -115q-6 -44 -7 -129q0 -38 2 -84h583v-999h-184v877h-397v-877h-189v877h-178z" />
<glyph unicode="&#xfb02;" horiz-adv-x="1138" d="M47 877v122h174q-2 57 -2 142q0 182 82 278q111 133 317 133q68 0 138 -18q90 -23 112 -23q53 0 123 41v-1552h-184v877h-395v-877h-191v877h-174zM412 999h395v351q-125 39 -182 39q-106 0 -159.5 -49.5t-53.5 -176.5v-164z" />
<glyph unicode="&#xfb03;" horiz-adv-x="1933" d="M84 862v119h149v236q0 49 3.5 77.5t21.5 73.5t55 82q76 76 211 76q98 0 158 -29v-156q-66 33 -123 33q-47 0 -76.5 -16.5t-40 -47t-13.5 -50t-3 -50.5v-225h188v-123h-188v-862h-193v862h-149zM766 862v119h149v236q0 49 3.5 77.5t21.5 73.5t55 82q76 76 211 76 q98 0 158 -29v-156q-66 33 -123 33q-47 0 -76.5 -16.5t-40 -47t-13.5 -50t-3 -50.5v-225h188v-123h-188v-862h-193v862h-149zM1530 1270v194h237v-194h-237zM1559 0v1071h184v-1071h-184z" />
<glyph unicode="&#xfb04;" horiz-adv-x="1933" d="M84 862v119h149v236q0 49 3.5 77.5t21.5 73.5t55 82q76 76 211 76q98 0 158 -29v-156q-66 33 -123 33q-47 0 -76.5 -16.5t-40 -47t-13.5 -50t-3 -50.5v-225h188v-123h-188v-862h-193v862h-149zM766 862v119h149v236q0 49 3.5 77.5t21.5 73.5t55 82q76 76 211 76 q98 0 158 -29v-156q-66 33 -123 33q-47 0 -76.5 -16.5t-40 -47t-13.5 -50t-3 -50.5v-225h188v-123h-188v-862h-193v862h-149zM1556 0v1460l158 66h27v-1526h-185z" />
</font>
</defs>
</svg>
